ply
format ascii 1.0
comment Created by Blender3D 249 - www.blender.org, source file: 
element vertex 24
property float x
property float y
property float z
property float nx
property float ny
property float nz
element face 6
property list uchar uint vertex_indices
end_header
-0.035925 0.108082 0.060305 -0.999939 -0.002380 -0.009705 
-0.034606 0.108083 -0.077600 -0.999939 -0.002380 -0.009705 
-0.034140 -0.085012 -0.077598 -0.999939 -0.002380 -0.009705 
-0.035458 -0.085014 0.060307 -0.999939 -0.002380 -0.009705 
0.033456 0.108246 0.060993 0.999939 0.002380 0.009705 
0.033922 -0.084850 0.060995 0.999939 0.002380 0.009705 
0.035241 -0.084848 -0.076912 0.999939 0.002380 0.009705 
0.034773 0.108248 -0.076913 0.999939 0.002380 0.009705 
-0.035925 0.108082 0.060305 -0.002380 0.999969 0.000000 
0.033456 0.108246 0.060993 -0.002380 0.999969 0.000000 
0.034773 0.108248 -0.076913 -0.002380 0.999969 0.000000 
-0.034606 0.108083 -0.077600 -0.002380 0.999969 0.000000 
-0.034606 0.108083 -0.077600 0.009705 0.000000 -0.999939 
0.034773 0.108248 -0.076913 0.009705 0.000000 -0.999939 
0.035241 -0.084848 -0.076912 0.009705 0.000000 -0.999939 
-0.034140 -0.085012 -0.077598 0.009705 0.000000 -0.999939 
-0.034140 -0.085012 -0.077598 0.002380 -0.999969 0.000000 
0.035241 -0.084848 -0.076912 0.002380 -0.999969 0.000000 
0.033922 -0.084850 0.060995 0.002380 -0.999969 0.000000 
-0.035458 -0.085014 0.060307 0.002380 -0.999969 0.000000 
0.033456 0.108246 0.060993 -0.009735 0.000000 0.999939 
-0.035925 0.108082 0.060305 -0.009735 0.000000 0.999939 
-0.035458 -0.085014 0.060307 -0.009735 0.000000 0.999939 
0.033922 -0.084850 0.060995 -0.009735 0.000000 0.999939 
4 0 1 2 3 
4 4 5 6 7 
4 8 9 10 11 
4 12 13 14 15 
4 16 17 18 19 
4 20 21 22 23 
