ply
format ascii 1.0
obj_info burti2-00000.jpg
obj_info burti2-00001.jpg
obj_info burti2-00002.jpg
obj_info burti2-00003.jpg
obj_info burti2-00004.jpg
element vertex 561
property float x
property float y
property float z
property float nx
property float ny
property float nz
element face 780
property list uchar uint vertex_indices
element pass 5
property list uchar uint face_indices
property float m0
property float m1
property float m2
property float m3
property float m4
property float m5
property float m6
property float m7
property float m8
property float m9
property float m10
property float m11
property float m12
property float m13
property float m14
property float m15
property float x
property float y
property float w
property float h
property uchar tex_index
end_header
-0.020319 -0.113725 0.019745 -0.387158 -0.921934 0.010956
-0.010204 -0.115753 0.022563 -0.194708 -0.980804 0.008423
-0.018041 -0.106419 0.019416 -0.262856 -0.959746 0.098849
-0.013448 -0.048611 0.022592 -0.185980 -0.981933 0.034089
-0.028524 -0.076163 0.016345 -0.502121 -0.864681 0.012482
-0.022579 -0.027840 0.020659 -0.331278 -0.942595 0.041749
-0.031682 -0.032922 0.015609 -0.609638 -0.792230 0.026215
-0.000394 0.001477 0.024136 0.030274 -0.997375 0.065584
-0.030736 0.018075 0.016712 -0.531175 -0.845820 0.048799
-0.013825 0.029832 0.022933 -0.165502 -0.983337 0.074862
-0.026301 0.053333 0.018522 -0.377575 -0.925535 0.027680
-0.015622 0.052712 0.021608 -0.163579 -0.986480 -0.009522
-0.014992 0.060168 0.022999 -0.189306 -0.980773 -0.046663
-0.024667 0.067567 0.019625 -0.397290 -0.905209 0.150639
-0.031739 0.059423 0.016104 -0.600909 -0.792322 0.105289
-0.006832 0.065882 0.024554 -0.119877 -0.992340 0.029633
-0.013313 -0.129184 0.018755 -0.249519 -0.957854 -0.142247
-0.022002 -0.127409 0.016960 -0.375042 -0.922575 -0.090396
-0.002630 -0.128619 0.021317 -0.074465 -0.991974 -0.101962
-0.034437 -0.129069 0.009318 -0.496506 -0.864345 -0.079867
-0.000916 -0.112149 0.023350 -0.031343 -0.998657 0.041200
-0.037128 -0.113670 0.010350 -0.529923 -0.837642 0.132206
-0.027267 -0.107798 0.015463 -0.505631 -0.850734 0.143345
-0.000488 -0.088426 0.023067 -0.032411 -0.998352 0.047029
0.000757 -0.066882 0.023721 -0.021821 -0.999054 0.037172
-0.040437 -0.046208 0.006893 -0.904813 -0.425672 0.006806
-0.000280 -0.032289 0.023687 0.018586 -0.998688 0.047670
-0.000324 0.056468 0.022533 0.144261 -0.988556 0.043672
-0.032642 0.045912 0.015029 -0.546464 -0.836695 0.035737
0.005086 0.059764 0.024493 -0.008911 -0.999908 -0.006836
0.003489 0.077949 0.023426 0.097751 -0.967620 0.232612
-0.009591 0.081736 0.022280 -0.207038 -0.945830 0.250008
-0.020566 0.081026 0.018673 -0.442091 -0.851405 0.282205
-0.013313 -0.129184 0.018755 -0.145268 -0.609119 -0.779656
-0.022002 -0.127409 0.016960 -0.312387 -0.742271 -0.592792
-0.021709 -0.130905 0.013972 -0.166387 -0.452834 -0.875912
-0.034437 -0.129069 0.009318 -0.286630 -0.473006 -0.833094
-0.039628 -0.107934 0.005754 -0.858760 -0.511734 -0.024964
0.012537 -0.105541 0.022087 0.141758 -0.985595 0.091952
0.015118 -0.042943 0.022439 0.205054 -0.977111 0.056459
0.010961 -0.014381 0.022995 0.187689 -0.978790 0.082064
-0.037601 -0.005007 0.010629 -0.727439 -0.685873 0.019654
-0.039421 0.047894 0.009736 -0.713950 -0.697195 0.064394
0.010122 0.009467 0.022318 0.416059 -0.901303 0.120396
-0.031061 0.074439 0.013393 -0.652394 -0.699942 0.290597
0.009986 0.066545 0.023598 0.298990 -0.948820 0.101444
-0.017120 0.095504 0.015792 -0.466231 -0.850551 0.243202
0.002023 -0.130760 0.018257 0.006287 -0.300333 -0.953795
-0.002630 -0.128619 0.021317 -0.026948 -0.589923 -0.806970
0.013685 -0.128628 0.020778 0.105594 -0.989288 -0.100711
0.014825 -0.003082 0.021114 0.340465 -0.900113 0.271706
-0.041324 0.011983 0.007154 -0.748680 -0.662740 0.015107
0.009107 0.031589 0.021409 0.448408 -0.884640 0.127750
0.003421 0.050996 0.021483 0.783441 -0.582507 0.216437
-0.038356 0.064408 0.007731 -0.842097 -0.489273 0.226722
-0.007370 0.094598 0.019007 -0.058687 -0.974792 0.215186
0.013685 -0.128628 0.020778 0.048494 -0.550645 -0.833308
-0.025756 -0.131200 0.009781 -0.057344 -0.110141 -0.992248
0.017092 -0.115520 0.022543 0.213141 -0.976836 0.018799
0.018666 -0.072693 0.021914 0.247963 -0.967834 0.041871
-0.041499 -0.003771 0.005868 -0.776482 -0.630024 0.010926
-0.042392 0.035647 0.006199 -0.790460 -0.610614 0.048128
-0.042609 0.049542 0.004966 -0.944456 -0.299356 0.135472
-0.032499 0.085319 0.006270 -0.862362 -0.317118 0.394635
0.014075 0.073798 0.021487 0.443648 -0.863643 0.239265
0.005638 0.087148 0.020101 0.310770 -0.865322 0.393170
-0.016957 0.102942 0.015886 -0.478652 -0.868923 0.125767
-0.010029 0.104481 0.018367 -0.209510 -0.876461 0.433424
-0.019923 0.106706 0.012968 -0.520768 -0.612354 0.594775
-0.018100 -0.131044 0.011339 0.007233 -0.023774 -0.999664
-0.041046 -0.099144 0.003560 -0.981719 -0.186621 -0.037294
-0.000324 0.056468 0.022533 0.269662 -0.607257 -0.747307
0.005372 0.054683 0.017360 0.269662 -0.607257 -0.747307
0.005086 0.059764 0.024493 0.269662 -0.607257 -0.747307
0.002718 0.098165 0.016888 0.352458 -0.901273 0.251869
-0.025043 0.095095 0.009239 -0.767327 -0.592059 0.246254
-0.002320 0.106930 0.017395 0.225318 -0.961547 0.156896
-0.033624 -0.131098 0.002244 -0.243477 -0.292062 -0.924863
-0.034437 -0.129069 0.009318 -0.911832 -0.144627 -0.384228
-0.037128 -0.113670 0.010350 -0.958647 -0.204596 -0.197699
-0.037045 -0.127110 -0.003716 -0.924284 -0.127567 -0.359691
0.014825 -0.003082 0.021114 0.740318 -0.618061 0.264290
0.015409 0.002379 0.018438 0.712088 -0.669393 0.211585
0.005372 0.054683 0.017360 0.887722 -0.446547 -0.111789
-0.010026 0.111304 0.011675 -0.146397 -0.577563 0.803095
-0.002320 0.106930 0.017395 0.060427 -0.572619 0.817560
0.024642 -0.129123 0.017620 0.077395 -0.385479 -0.919462
-0.026024 -0.130015 0.002626 0.067110 0.010071 -0.997681
0.024642 -0.129123 0.017620 0.364086 -0.901242 -0.234901
0.027781 -0.105733 0.018201 0.406842 -0.906491 0.112827
0.023126 -0.024683 0.019877 0.343883 -0.935606 0.079745
-0.041499 -0.003771 0.005868 -0.992950 -0.118381 -0.003265
-0.042429 -0.011359 -0.002580 -0.997864 -0.061373 -0.021607
0.005086 0.059764 0.024493 0.729942 -0.422773 -0.537004
0.010783 0.058979 0.009622 0.755974 -0.243385 -0.607624
0.014742 0.064047 0.015298 0.599689 -0.407971 -0.688406
0.009986 0.066545 0.023598 0.661428 -0.567583 -0.490219
0.017924 0.071290 0.018735 0.593616 -0.777520 -0.207465
0.014203 0.084554 0.017066 0.538530 -0.702414 0.465316
-0.015996 0.110457 0.009402 -0.364544 -0.408887 0.836573
-0.033624 -0.131098 0.002244 0.049806 -0.001099 -0.998749
-0.033624 -0.131098 0.002244 -0.775201 -0.063875 -0.628437
-0.041846 -0.062295 -0.006576 -0.999786 -0.012116 0.016480
0.021543 -0.008169 0.019499 0.435072 -0.883633 0.172826
0.024486 -0.007072 0.017324 0.616504 -0.479904 0.624165
0.018854 -0.002712 0.016426 0.673208 -0.230903 0.702445
0.018854 -0.002712 0.016426 0.727256 -0.629963 0.272378
-0.041324 0.011983 0.007154 -0.993652 -0.112156 -0.006897
-0.038683 0.072142 -0.001891 -0.958708 -0.064730 0.276833
0.008997 0.096112 0.013390 0.611408 -0.726859 0.312693
-0.028759 0.095274 -0.001929 -0.960112 -0.097140 0.262154
-0.026222 0.106104 0.004591 -0.914151 -0.390576 0.108280
0.006416 0.107310 0.013611 0.307627 -0.473556 0.825282
0.002994 0.110831 0.010215 0.275002 -0.469131 0.839198
-0.010105 0.138855 0.009733 -0.226814 -0.950713 0.211280
-0.015996 0.110457 0.009402 -0.619922 -0.777123 0.108158
-0.010026 0.111304 0.011675 -0.117405 -0.988311 0.097110
-0.040164 -0.115602 -0.005127 -0.984008 -0.027223 -0.175939
0.034394 -0.056214 0.015309 0.493789 -0.868129 0.049684
-0.042392 0.035647 0.006199 -0.995697 -0.092593 -0.001740
-0.043232 0.013105 -0.009308 -0.998199 0.053499 -0.027070
-0.044032 0.038348 -0.008086 -0.995544 0.093509 0.009400
0.009107 0.031589 0.021409 0.931242 -0.272774 0.241554
0.008206 0.047742 0.010033 0.966094 -0.235969 0.104648
-0.042951 0.053446 -0.007182 -0.990478 0.044801 0.130131
0.019452 0.064603 0.010427 0.462844 -0.490493 -0.738334
0.020826 0.078150 0.015389 0.657430 -0.654866 0.372662
0.006416 0.107310 0.013611 0.522385 -0.832972 0.182287
-0.020409 0.110621 0.004402 -0.554094 -0.227699 0.800684
-0.026222 0.106104 0.004591 -0.587054 -0.218635 0.779443
0.002994 0.110831 0.010215 0.111148 -0.992676 0.047060
-0.001092 0.135141 0.010841 0.107761 -0.937651 0.330363
-0.017547 0.137320 0.005889 -0.765130 -0.628163 0.141270
0.035775 -0.130296 0.009892 0.041505 -0.166173 -0.985198
0.033243 -0.114903 0.016780 0.434248 -0.900723 0.007782
-0.041064 -0.031397 -0.015093 -0.948790 0.314432 -0.029786
0.033091 -0.015744 0.015112 0.502670 -0.796442 0.336131
0.015409 0.002379 0.018438 0.942595 -0.176305 0.283517
0.014065 0.027309 0.007681 0.975890 -0.117161 0.184088
0.009629 0.055510 0.007323 0.928190 -0.204047 -0.311075
-0.004243 0.138406 0.009607 0.200018 -0.808100 0.554003
0.037773 -0.125642 0.012512 0.674337 -0.682241 -0.282449
-0.042425 -0.097621 -0.010055 -0.996033 0.071505 -0.052644
0.036294 -0.082132 0.013551 0.529801 -0.847499 0.031861
0.028841 -0.010441 0.014268 0.533280 -0.627735 0.567034
0.021543 -0.008169 0.019499 0.589648 -0.546007 0.595080
0.028841 -0.010441 0.014268 0.587725 -0.805994 0.070009
0.021708 -0.004679 0.015629 0.463149 0.600024 0.652242
0.022523 -0.006949 0.013545 0.650349 0.383007 0.655995
0.020663 -0.004065 0.015476 0.630421 0.428510 0.647206
0.019482 -0.002807 0.015022 0.772942 -0.036164 0.633412
0.016690 0.001730 0.013776 0.897427 -0.121097 0.424146
0.015782 0.008447 0.008279 0.978820 -0.106540 0.174749
0.028469 0.071085 0.010282 0.758324 -0.640919 0.118778
-0.033418 0.087236 -0.007108 -0.902951 0.131687 0.409009
-0.028038 0.105921 -0.001847 -0.624165 -0.070528 0.778069
-0.020467 0.131581 0.001895 -0.912687 -0.396283 0.099704
0.004140 0.137538 0.006361 0.341685 -0.687613 0.640614
-0.008314 -0.129945 -0.014380 0.031190 -0.041749 -0.998627
-0.030282 -0.131192 -0.016995 -0.097507 0.042268 -0.994324
-0.036097 -0.128425 -0.014655 -0.860286 0.053865 -0.506912
-0.033973 -0.130787 -0.011168 -0.496139 0.038026 -0.867397
-0.039999 -0.107014 -0.016748 -0.846095 0.531938 -0.033631
0.036588 -0.032232 0.013689 0.566546 -0.821528 0.063875
0.028841 -0.010441 0.014268 0.445296 0.610614 0.654836
0.021708 -0.004679 0.015629 0.607227 -0.097049 0.788537
0.009373 0.053895 -0.001622 0.979339 0.029267 -0.199927
0.016316 0.096116 0.004488 0.840480 -0.367260 0.398358
0.011599 0.107326 0.008998 0.787500 -0.590564 0.176122
-0.028038 0.105921 -0.001847 -0.994690 -0.074557 0.070894
0.011599 0.107326 0.008998 0.496719 -0.314249 0.808985
-0.020409 0.110621 0.004402 -0.888394 -0.452559 0.076754
-0.020483 0.137075 -0.000925 -0.976623 -0.178899 0.119083
-0.006342 0.139566 0.005083 0.048494 -0.088870 0.994842
-0.004243 0.138406 0.009607 0.123264 -0.139348 0.982513
0.004140 0.137538 0.006361 0.167852 -0.112674 0.979339
-0.010105 0.138855 0.009733 -0.106388 -0.134342 0.985198
-0.017059 0.139274 -0.000640 -0.349986 -0.017731 0.936552
-0.017547 0.137320 0.005889 -0.432722 -0.181005 0.883145
0.035775 -0.130296 0.009892 0.659047 -0.435133 -0.613392
0.028841 -0.010441 0.014268 0.633442 -0.009583 0.773705
0.019482 -0.002807 0.015022 -0.130345 0.861843 -0.490127
0.021708 -0.004679 0.015629 -0.130345 0.861843 -0.490127
0.020663 -0.004065 0.015476 -0.130345 0.861843 -0.490127
-0.043033 0.047280 -0.011751 -0.927854 0.364177 0.080050
0.015274 0.062512 0.008579 0.497818 -0.127812 -0.857784
0.030759 0.065467 0.006097 0.468764 -0.746666 -0.471908
-0.022524 0.110852 -0.004896 -0.998718 -0.007324 0.049532
-0.020483 0.137075 -0.000925 -0.542955 -0.016724 0.839564
0.039168 -0.112963 0.012881 0.690237 -0.722098 0.045869
0.033767 -0.011617 0.011886 0.455489 -0.706412 0.541704
0.020698 -0.003950 -0.004734 0.885891 0.022980 0.463301
0.009480 0.046551 0.003153 0.984741 0.008820 0.173650
0.013475 0.061768 0.000567 0.901181 -0.031709 -0.432264
0.025701 0.079370 0.007431 0.824335 -0.309549 0.473922
-0.036238 0.076522 -0.012869 -0.899991 0.344249 0.267312
0.007447 0.111929 0.004832 0.501358 -0.323222 0.802545
-0.022524 0.110852 -0.004896 -0.624165 0.001679 0.781274
0.006106 0.122691 0.005514 0.802911 -0.587359 0.101444
0.002994 0.110831 0.010215 0.731315 -0.672506 0.113376
0.007447 0.111929 0.004832 0.848476 -0.519517 0.100833
-0.001092 0.135141 0.010841 0.668661 -0.735343 0.109958
0.004140 0.137538 0.006361 0.748466 -0.655995 0.097171
0.007718 0.137845 0.000714 0.293497 -0.062044 0.953917
-0.041057 -0.065816 -0.015319 -0.893216 0.449110 -0.021088
0.040396 -0.014512 0.009850 0.488113 -0.798944 0.351238
0.019452 0.064603 0.010427 -0.182409 0.018403 -0.983032
0.024376 0.064181 0.003680 -0.274087 -0.274209 -0.921751
0.029471 0.062930 0.003682 -0.236885 0.059908 -0.969665
0.013475 0.061768 0.000567 0.426954 0.010498 -0.904202
-0.027939 0.096264 -0.009515 -0.930631 0.252174 0.265145
0.010144 0.111775 -0.001393 0.595294 -0.030091 0.802911
-0.020801 0.136317 -0.006744 -0.935240 0.349620 0.055300
-0.020801 0.136317 -0.006744 -0.570910 0.224952 0.789575
0.039403 -0.129688 -0.007064 0.415784 -0.021851 -0.909177
0.040858 -0.120072 0.009880 0.930815 -0.348399 -0.110385
-0.039055 -0.116795 -0.018616 -0.890072 0.419416 -0.178472
0.042873 -0.095855 0.008354 0.702933 -0.710562 0.031129
0.028841 -0.010441 0.014268 0.397473 -0.174413 0.900845
0.033767 -0.011617 0.011886 0.184729 -0.356304 0.915922
0.025640 -0.006146 0.002834 0.216926 -0.178289 0.959746
0.022523 -0.006949 0.013545 0.341350 -0.118259 0.932432
0.017572 0.004002 -0.006518 0.971282 0.039491 0.234565
-0.041195 0.005507 -0.015314 -0.882290 0.469588 -0.031373
0.029471 0.062930 0.003682 0.153905 -0.781823 -0.604175
0.016012 0.107204 -0.000955 0.982513 -0.093142 0.161107
-0.027096 0.107053 -0.009259 -0.963836 0.259194 0.061647
-0.027096 0.107053 -0.009259 -0.626728 0.151433 0.764367
0.010144 0.111775 -0.001393 0.982238 -0.172094 0.074679
0.040949 -0.126459 0.003705 0.879208 -0.205237 -0.429914
0.012805 -0.129609 -0.012595 -0.006867 -0.037385 -0.999268
0.042479 -0.111131 0.007417 0.942808 -0.324992 -0.073916
0.043497 -0.062834 0.008225 0.671773 -0.740013 0.032716
0.020129 0.064784 0.001772 -0.222144 -0.211859 -0.951689
-0.020273 0.112038 -0.010810 -0.564531 0.306803 0.766228
0.007718 0.137845 0.000714 0.933195 -0.347087 0.093051
-0.014381 0.139686 -0.011715 -0.299570 0.218146 0.928770
-0.034625 -0.128820 -0.019547 -0.447279 0.167943 -0.878445
0.047770 -0.049078 0.004221 0.802118 -0.596149 0.034089
0.039788 -0.010057 0.007133 0.180975 -0.693472 0.697348
0.034145 -0.008072 0.005325 0.013733 -0.545122 0.838221
0.020129 0.064784 0.001772 0.422773 -0.053377 -0.904630
0.035162 0.062907 0.000787 0.906735 -0.062380 0.416974
-0.020273 0.112038 -0.010810 -0.880856 0.473190 0.013062
-0.034625 -0.128820 -0.019547 -0.771813 0.515061 -0.372753
0.047994 -0.025123 0.003687 0.653310 -0.754479 0.062624
0.020698 -0.003950 -0.004734 0.270974 -0.010590 0.962523
0.014359 0.026473 -0.008459 0.978088 0.096225 0.184545
-0.038885 0.051134 -0.018009 -0.764702 0.644337 -0.006073
0.035162 0.062907 0.000787 0.714713 -0.698569 -0.034120
0.016012 0.107204 -0.000955 0.607837 -0.046449 0.792657
-0.000017 0.141622 -0.007846 0.202643 0.136082 0.969726
0.048410 -0.063208 0.002656 0.915647 -0.401532 -0.018220
0.043861 -0.006625 0.004390 0.141270 -0.846950 0.512528
0.030884 -0.006232 0.000981 -0.096133 -0.277841 0.955779
-0.036464 0.058589 -0.020403 -0.734794 0.674764 0.068697
0.032781 0.062783 0.003236 0.005768 -0.878628 -0.477401
0.032781 0.062783 0.003236 0.717124 -0.696463 -0.024873
0.020987 0.062580 -0.005448 -0.319895 -0.214179 -0.922910
-0.024421 0.095784 -0.017525 -0.782891 0.580950 0.222541
-0.024145 0.106753 -0.016201 -0.812433 0.580065 0.058535
0.008162 0.136906 -0.007549 0.935392 0.349162 0.055361
-0.034062 -0.124043 -0.022614 -0.578631 0.773034 -0.259926
-0.033475 -0.088978 -0.023185 -0.640645 0.765526 -0.059114
0.046629 -0.008830 0.004236 0.461837 -0.829768 0.313303
-0.032009 -0.015582 -0.025809 -0.597064 0.801141 -0.040773
0.038995 -0.005715 0.003860 -0.228278 -0.666402 0.709769
0.031292 0.059376 0.001611 -0.023560 -0.927824 -0.372234
0.027747 0.060747 0.000512 -0.395886 -0.704062 -0.589496
0.031292 0.059376 0.001611 -0.256294 -0.951506 -0.169988
0.029471 0.062930 0.003682 -0.316843 -0.685354 -0.655629
0.027415 0.079875 -0.002774 0.884640 0.000275 0.466231
-0.032005 0.076917 -0.019521 -0.705802 0.668386 0.234657
-0.016539 0.123237 -0.015956 -0.841456 0.539140 0.035340
-0.014807 0.137189 -0.015626 -0.356883 0.589496 0.724631
-0.031460 -0.033670 -0.025726 -0.627338 0.776910 -0.052797
0.046810 0.000080 0.000722 0.240944 -0.913144 0.328776
0.042995 -0.002710 0.002846 0.047639 -0.873714 0.484054
0.031864 -0.004634 -0.002739 -0.191870 -0.161504 0.968017
0.026542 -0.005550 -0.003794 0.013916 -0.028352 0.999481
0.027728 0.054351 -0.000837 -0.663259 -0.733543 -0.148198
0.035942 0.055352 0.000704 -0.144780 -0.935057 -0.323496
0.035942 0.055352 0.000704 0.562792 -0.816858 0.126316
0.017377 0.063494 -0.006168 -0.033418 0.010895 -0.999359
-0.024145 0.106753 -0.016201 -0.515213 0.414136 0.750328
-0.015376 0.111058 -0.017947 -0.823542 0.566942 -0.016724
-0.014807 0.137189 -0.015626 -0.828547 0.553270 0.085879
-0.006596 0.140257 -0.014495 -0.014649 0.521683 0.852992
-0.033365 0.037274 -0.023108 -0.586474 0.809473 -0.027039
0.038027 0.045015 0.000389 0.091617 -0.995483 0.024079
0.030216 0.048859 -0.000138 -0.455611 -0.875423 -0.161260
0.007287 0.053887 -0.016481 0.972381 0.233192 -0.006378
0.027747 0.060747 0.000512 -0.743217 -0.632710 -0.217414
0.024305 0.057742 -0.004833 -0.773156 -0.597064 -0.213752
0.006794 0.058260 -0.024106 0.768670 0.200537 -0.607349
0.016888 0.096734 -0.008708 0.927000 0.169286 0.334574
0.014514 0.107464 -0.010841 0.568255 0.223334 0.791955
-0.015376 0.111058 -0.017947 -0.311380 0.542161 0.780419
0.008162 0.136906 -0.007549 0.497971 0.195502 0.844844
-0.027103 -0.129651 -0.024188 -0.361064 0.567431 -0.740013
-0.031994 -0.113312 -0.024837 -0.595965 0.802911 0.010712
-0.028804 -0.107008 -0.025842 -0.523423 0.851283 0.035829
0.049258 -0.048314 -0.001926 0.995361 -0.096072 -0.001953
0.047994 -0.025123 0.003687 0.978668 -0.201910 0.037660
0.025471 -0.005514 -0.010502 0.149480 0.133061 0.979766
0.036847 -0.000538 -0.002139 -0.425794 -0.639943 0.639637
0.031864 -0.004634 -0.002739 -0.524857 -0.625599 0.577136
0.043732 0.005652 0.000348 -0.062349 -0.966247 0.249855
0.039429 0.003299 -0.000643 -0.579577 -0.796716 0.171148
0.036847 -0.000538 -0.002139 -0.765831 -0.498062 0.406659
0.042995 -0.002710 0.002846 -0.491623 -0.835322 0.245979
0.039633 0.030642 0.000552 -0.270363 -0.962188 0.032960
0.034104 0.040016 -0.000814 -0.201788 -0.979125 -0.023316
0.034104 0.040016 -0.000814 -0.686514 -0.659261 -0.306619
0.028338 0.045097 -0.004075 -0.735466 -0.622883 -0.266579
0.037849 0.056469 -0.001366 0.693197 -0.700674 0.168767
0.020987 0.062580 -0.005448 -0.668020 -0.661336 -0.341075
0.017015 0.064655 -0.012248 0.177221 0.105441 -0.978484
0.014514 0.107464 -0.010841 0.920103 0.364544 0.143071
0.007955 0.111613 -0.011685 0.506790 0.335032 0.794275
-0.017465 0.107689 -0.022182 -0.312235 0.535661 0.784539
0.007955 0.111613 -0.011685 0.859188 0.510910 0.026337
0.003411 0.137909 -0.014158 0.313456 0.442946 0.839930
0.041559 -0.126300 -0.011326 0.961547 0.057558 -0.268441
0.008091 -0.128697 -0.017949 -0.030488 -0.102023 -0.994293
0.048084 -0.082427 -0.006500 0.994842 0.039247 -0.093295
0.030336 -0.005102 -0.006948 -0.098849 0.085849 0.991363
0.031864 -0.004634 -0.002739 -0.638630 -0.106632 0.762078
0.030336 -0.005102 -0.006948 -0.715354 -0.131169 0.686300
0.035835 0.003965 -0.005152 -0.926237 -0.343150 0.155919
0.040912 0.009389 -0.000742 -0.274575 -0.956359 0.099765
0.045918 0.010064 -0.000395 0.063814 -0.988800 0.134739
0.038481 0.014868 -0.002034 -0.657002 -0.753868 -0.003815
0.039633 0.030642 0.000552 -0.634602 -0.767144 -0.093509
0.039633 0.030642 0.000552 0.264077 -0.960479 0.087802
0.035838 0.030430 -0.002298 -0.788141 -0.612110 -0.064180
0.044849 0.025162 -0.000864 0.331523 -0.935301 0.123508
0.042877 0.040143 -0.001625 0.476791 -0.866115 0.149998
0.033068 0.035923 -0.004128 -0.671010 -0.712973 -0.203375
0.021540 0.063353 -0.009770 -0.149754 0.198553 -0.968566
-0.028283 0.063083 -0.026195 -0.524003 0.848872 0.069002
-0.017465 0.107689 -0.022182 -0.516770 0.854915 0.044801
-0.005261 -0.130751 -0.026210 -0.000793 -0.010956 -0.999939
-0.016769 -0.126700 -0.031299 -0.307077 0.849269 -0.429426
-0.021153 -0.113219 -0.031152 -0.407208 0.913266 -0.010193
0.049165 -0.025117 -0.002428 0.998932 -0.038179 0.025971
0.046629 -0.008830 0.004236 0.964782 -0.247719 0.088290
0.034823 0.000030 -0.006314 -0.848689 -0.058687 0.525559
0.036207 0.015543 -0.005403 -0.842158 -0.538774 -0.021790
0.034664 0.027494 -0.005656 -0.904721 -0.417035 -0.086642
0.033068 0.035923 -0.004128 -0.888272 0.006806 -0.459181
0.028338 0.045097 -0.004075 -0.879421 0.298837 -0.370525
0.033054 0.036141 -0.006876 -0.902432 0.263131 -0.341105
0.026714 0.056450 -0.009900 -0.848964 0.308725 -0.428846
0.024305 0.057742 -0.004833 -0.831172 0.233253 -0.504654
0.037201 0.056745 -0.009842 0.916898 0.125401 0.378826
0.037849 0.056469 -0.001366 0.929289 -0.010895 0.369182
-0.020425 0.086017 -0.025714 -0.480544 0.846065 0.230659
0.023987 0.084522 -0.012618 0.824854 0.295389 0.481979
-0.017333 0.095399 -0.023600 -0.487228 0.856197 0.171789
0.004847 0.122187 -0.014319 0.713675 0.699210 0.041841
0.003411 0.137909 -0.014158 0.639424 0.767449 0.046022
-0.016539 0.123237 -0.015956 -0.320475 0.947020 0.020234
-0.014807 0.137189 -0.015626 -0.301065 0.949065 0.092807
-0.009009 0.129125 -0.018712 -0.155583 0.987182 0.034944
-0.003623 0.137120 -0.018070 0.028657 0.686148 0.726859
-0.026461 -0.070525 -0.028369 -0.472427 0.878872 -0.065920
0.048947 0.001465 -0.006250 0.995636 -0.060488 0.070711
0.046810 0.000080 0.000722 0.943754 -0.304849 0.127873
0.030513 -0.005349 -0.010838 0.080020 0.263009 0.961455
0.044849 0.025162 -0.000864 0.872280 -0.470321 0.133671
0.045918 0.010064 -0.000395 0.905454 -0.412641 0.099307
0.047275 0.019929 -0.004117 0.971679 -0.191168 0.138768
0.015100 0.008272 -0.019007 0.949675 0.237617 0.203955
0.042877 0.040143 -0.001625 0.945524 -0.235817 0.224342
0.033054 0.036141 -0.006876 -0.904263 -0.417829 -0.087649
0.035838 0.030430 -0.002298 -0.888150 0.006806 -0.459456
0.034722 0.036134 -0.009892 -0.852138 0.438185 -0.286019
0.042028 0.046431 -0.006488 0.951872 0.191351 0.239296
-0.025279 0.051696 -0.027887 -0.432783 0.900204 -0.047761
0.021540 0.063353 -0.009770 -0.788598 0.182043 -0.587298
0.020987 0.062580 -0.005448 -0.795099 0.172552 -0.581378
0.033619 0.065139 -0.011539 0.903195 0.371410 0.215064
0.010558 0.107323 -0.017474 0.460921 0.468795 0.753471
-0.005468 0.111289 -0.020154 -0.049806 0.998505 0.021241
-0.015376 0.111058 -0.017947 -0.218360 0.972198 0.084445
-0.003623 0.137120 -0.018070 0.116245 0.990448 0.073885
0.033360 -0.130374 -0.019745 0.095370 0.002625 -0.995422
0.014495 -0.130939 -0.027458 0.009003 0.011353 -0.999878
-0.016404 -0.130311 -0.027739 -0.143834 0.367290 -0.918882
0.030513 -0.005349 -0.010838 -0.533311 0.363109 0.763970
0.019346 -0.003148 -0.013603 0.741295 0.092074 0.664785
0.036297 0.006971 -0.008478 -0.928373 0.354717 0.110691
0.036207 0.015543 -0.005403 -0.950285 0.311014 0.013062
0.034664 0.027494 -0.005656 -0.937254 0.305551 -0.167730
0.038215 0.010000 -0.010313 -0.898373 0.439192 0.001831
0.011948 0.029784 -0.019272 0.958983 0.229530 0.166173
-0.022855 0.028035 -0.029734 -0.399213 0.916501 -0.025300
0.026701 0.065235 -0.015216 -0.037111 0.163640 -0.985809
-0.020221 0.073059 -0.028868 -0.381146 0.920957 0.080721
0.001729 0.111659 -0.018250 0.319742 0.548143 0.772820
0.001729 0.111659 -0.018250 0.539323 0.841700 0.025269
-0.000668 0.122734 -0.018367 0.360576 0.932157 0.031861
-0.023185 -0.032666 -0.030144 -0.374248 0.925626 -0.055513
0.036003 0.029044 -0.009939 -0.906156 0.382611 -0.180059
0.026714 0.056450 -0.009900 -0.380200 0.853664 -0.355937
0.021540 0.063353 -0.009770 -0.495865 0.699210 -0.514939
0.029216 0.061732 -0.013949 -0.434584 0.734153 -0.521622
0.029028 0.071976 -0.017814 0.797540 0.527421 0.292734
0.013584 0.096112 -0.016294 0.758080 0.556352 0.340220
0.010558 0.107323 -0.017474 0.727531 0.676473 0.114200
-0.005468 0.111289 -0.020154 -0.013550 0.633229 0.773797
-0.009121 0.106723 -0.025705 -0.097598 0.636097 0.765374
0.018616 -0.129395 -0.021021 0.015656 -0.165105 -0.986145
0.038625 0.001554 -0.012940 -0.846126 0.509049 0.157781
0.034823 0.000030 -0.006314 -0.868557 0.461745 0.179876
0.016318 0.002701 -0.022465 0.877224 0.235725 0.418165
0.036003 0.029044 -0.009939 -0.499557 0.858852 -0.112949
0.034722 0.036134 -0.009892 -0.433668 0.888668 -0.148961
0.037545 0.036289 -0.011539 -0.506577 0.851924 -0.132511
0.040324 0.047467 -0.010014 0.902554 0.384106 0.194525
0.035286 0.049764 -0.011763 -0.397931 0.893857 -0.206519
0.032743 0.057809 -0.012955 -0.351482 0.837672 -0.417982
0.026701 0.065235 -0.015216 -0.480148 0.623676 -0.616810
0.017120 0.065264 -0.022162 0.511704 0.362529 -0.778924
0.000830 0.106989 -0.025367 0.174535 0.627461 0.758812
0.045062 -0.099637 -0.013727 0.973113 0.187262 -0.133946
0.048107 -0.054960 -0.017079 0.994964 0.098880 -0.016175
-0.014013 -0.107755 -0.032471 -0.278512 0.960082 0.024995
-0.016870 -0.002451 -0.032348 -0.261940 0.964324 -0.037782
0.038625 0.001554 -0.012940 -0.149907 0.980132 0.129643
0.038215 0.010000 -0.010313 -0.369213 0.929319 0.000183
0.043793 0.009956 -0.012158 0.098209 0.993713 0.053163
0.047704 0.002428 -0.011321 0.971954 0.229133 0.052431
0.046256 0.019829 -0.010358 0.970611 0.202185 0.130406
0.043899 0.030717 -0.011323 0.906095 0.373150 0.199225
0.040631 0.021561 -0.012122 -0.439863 0.890744 -0.114353
0.040492 0.042708 -0.011084 0.876644 0.453139 0.161687
0.040492 0.042708 -0.011084 0.207648 0.977569 0.035066
0.035286 0.049764 -0.011763 0.288827 0.957335 0.008271
0.040324 0.047467 -0.010014 0.444075 0.892178 0.082430
0.037545 0.036289 -0.011539 0.096866 0.995086 -0.019684
0.032743 0.057809 -0.012955 0.413648 0.909421 -0.042543
0.003611 0.047831 -0.029680 0.764397 0.632099 0.126926
0.003669 0.056231 -0.029095 0.813837 0.371319 -0.446913
0.037201 0.056745 -0.009842 0.616993 0.783563 0.072817
-0.019194 0.062198 -0.030249 -0.330332 0.941832 -0.061617
0.021086 0.065874 -0.018855 0.049745 0.055757 -0.997192
-0.009438 0.095695 -0.026394 -0.147832 0.976989 0.153661
-0.009121 0.106723 -0.025705 -0.178503 0.983825 0.013031
0.007482 0.096017 -0.022295 0.537278 0.803430 0.256478
-0.009005 -0.129322 -0.031459 -0.154637 0.724357 -0.671804
0.044592 -0.089882 -0.020127 0.970428 0.207831 -0.122562
0.046676 -0.006579 -0.017062 0.982604 0.185553 0.005402
0.037934 -0.005512 -0.018099 -0.296640 0.575488 0.762078
0.025426 -0.008578 -0.024220 0.308298 0.208808 0.928068
0.021385 -0.004935 -0.026451 0.668569 0.233131 0.706137
0.037934 -0.005512 -0.018099 -0.839595 0.415906 0.349376
0.040631 0.021561 -0.012122 0.235145 0.971892 -0.010193
0.043899 0.030717 -0.011323 0.149327 0.988342 -0.028535
0.046256 0.019829 -0.010358 0.324625 0.945830 -0.000946
-0.012002 0.057436 -0.031625 -0.153661 0.982116 -0.108646
0.031631 0.063050 -0.013807 0.584765 0.804529 -0.103580
0.029216 0.061732 -0.013949 0.129826 0.974029 -0.185461
0.029233 0.066380 -0.019051 0.756981 0.653401 -0.004303
0.025152 0.065708 -0.019487 -0.054598 0.036073 -0.997833
0.021736 0.080248 -0.021310 0.686331 0.600848 0.409742
-0.009005 -0.129322 -0.031459 -0.055666 0.171972 -0.983520
-0.002738 -0.130112 -0.030988 -0.027619 0.389508 -0.920591
0.039706 -0.114974 -0.026363 0.950224 0.251289 -0.184057
0.047093 -0.073830 -0.017690 0.984252 0.148961 -0.095096
-0.009918 -0.028119 -0.033876 -0.180273 0.982330 -0.050142
0.044818 0.003712 -0.012712 0.345897 0.929533 0.127537
0.047704 0.002428 -0.011321 0.440107 0.875484 0.199377
0.007029 0.039502 -0.028353 0.871029 0.450453 0.195898
0.029216 0.061732 -0.013949 0.299570 0.602680 -0.739586
0.029233 0.066380 -0.019051 0.260933 0.666463 -0.698325
0.031631 0.063050 -0.013807 0.405103 0.577288 -0.708914
-0.008911 0.062501 -0.033511 -0.167547 0.972076 -0.164190
0.025152 0.065708 -0.019487 -0.827387 -0.271157 -0.491775
0.029216 0.061732 -0.013949 -0.827387 -0.271157 -0.491775
0.026701 0.065235 -0.015216 -0.827387 -0.271157 -0.491775
-0.006503 0.076527 -0.033323 -0.091006 0.989807 0.109348
0.013149 0.085291 -0.025982 0.526688 0.756035 0.388501
0.001353 0.095119 -0.025750 0.263710 0.946104 0.187933
0.000830 0.106989 -0.025367 0.311624 0.949767 0.027985
-0.005781 -0.113209 -0.035655 -0.158849 0.986572 -0.037568
0.031341 -0.009096 -0.019976 -0.125431 0.247597 0.960692
0.038625 0.001554 -0.012940 -0.201361 0.802942 0.560991
0.042377 -0.000767 -0.015736 -0.230232 0.788110 0.570818
0.042377 -0.000767 -0.015736 0.450117 0.812311 0.370800
0.044818 0.003712 -0.012712 -0.187048 0.796167 0.575396
0.009618 0.023948 -0.029680 0.870418 0.477340 0.120243
0.025152 0.065708 -0.019487 0.077059 0.710471 -0.699454
0.036493 -0.127999 -0.025846 0.613636 0.197180 -0.764550
-0.001014 -0.127353 -0.033997 -0.082827 0.858028 -0.506821
0.000380 -0.105611 -0.034746 -0.068880 0.995178 0.069369
0.046676 -0.006579 -0.017062 0.535722 0.827540 0.167699
0.041125 -0.007029 -0.020687 -0.143529 0.666951 0.731101
0.010363 0.007069 -0.032039 0.707785 0.694113 0.131169
0.000515 0.001083 -0.034269 0.058748 0.998077 -0.018464
0.003997 0.059758 -0.033160 0.678854 0.410993 -0.608448
0.003597 0.086443 -0.029343 0.241798 0.914121 0.325388
0.000378 -0.067388 -0.035283 -0.032746 0.998047 -0.053102
0.034774 -0.008195 -0.022800 -0.222388 0.292306 0.930082
0.030725 -0.009082 -0.025552 -0.070528 0.043886 0.996521
0.041125 -0.007029 -0.020687 0.401044 0.850734 0.339640
0.000504 0.047193 -0.031684 0.297708 0.954558 0.012055
0.000398 0.056265 -0.031806 -0.034700 0.960753 -0.275185
0.009735 0.062631 -0.027709 0.641194 0.441176 -0.627857
0.019368 0.071809 -0.026251 0.556322 0.570360 -0.604266
0.022430 0.070952 -0.023699 0.018891 0.749504 -0.661702
0.021086 0.065874 -0.018855 -0.141270 0.697684 -0.702292
0.022430 0.070952 -0.023699 0.484115 0.583880 -0.651662
0.021086 0.065874 -0.018855 0.542894 0.495163 -0.678243
0.022430 0.070952 -0.023699 0.611835 0.790948 -0.005127
0.021351 0.074736 -0.024353 0.631825 0.758049 0.161565
0.026622 -0.129240 -0.028960 0.129887 0.246284 -0.960448
0.012971 0.000677 -0.031831 0.739158 0.374554 0.559740
0.006333 0.033182 -0.031328 0.585345 0.803522 0.108097
0.004822 0.017757 -0.033226 0.220222 0.975402 0.005371
0.003669 0.056231 -0.029095 0.587146 0.809259 -0.017762
0.000398 0.056265 -0.031806 0.638112 0.768609 -0.044649
0.019368 0.071809 -0.026251 0.557298 0.830287 -0.002808
0.015862 0.076212 -0.028264 0.489395 0.852321 0.184423
0.013710 -0.128350 -0.033113 0.089877 0.700308 -0.708152
0.007543 -0.123334 -0.035612 0.057863 0.971343 -0.230415
0.048107 -0.054960 -0.017079 0.606616 0.794305 -0.032746
0.032587 -0.042939 -0.028391 0.460860 0.886929 -0.030122
0.036940 -0.016342 -0.024697 0.456404 0.889706 0.006439
0.038519 -0.010460 -0.023092 0.425977 0.869655 0.249428
0.034774 -0.008195 -0.022800 0.302469 0.814203 0.495499
0.025426 -0.008578 -0.024220 0.238227 -0.649678 0.721885
0.030725 -0.009082 -0.025552 0.238227 -0.649678 0.721885
0.021385 -0.004935 -0.026451 0.238227 -0.649678 0.721885
0.030725 -0.009082 -0.025552 0.436872 0.644032 0.627949
0.022262 -0.006935 -0.029952 0.527055 0.481948 0.699942
0.000398 0.056265 -0.031806 0.458113 0.522904 -0.718772
0.007423 0.065228 -0.033084 0.674734 0.507187 -0.536149
0.003997 0.059758 -0.033160 0.001679 0.987243 -0.159154
0.008468 0.073910 -0.032327 0.314951 0.944548 0.092685
0.008162 -0.112021 -0.035997 0.044374 0.998474 0.032716
0.013138 -0.106447 -0.034580 0.135411 0.990143 0.035707
0.044592 -0.089882 -0.020127 0.564379 0.825495 -0.000275
0.037270 -0.068103 -0.025552 0.555742 0.830470 -0.037904
0.047093 -0.073830 -0.017690 0.626850 0.778252 -0.036714
0.029561 -0.105315 -0.030559 0.402692 0.914182 0.045564
0.013233 -0.046475 -0.033730 0.177892 0.983276 -0.038820
0.018548 -0.017865 -0.032443 0.274453 0.961547 0.009827
0.031756 -0.011226 -0.026595 0.386853 0.922117 0.000336
0.031756 -0.011226 -0.026595 0.396435 0.746879 0.533799
0.012971 0.000677 -0.031831 0.225867 0.973601 0.032624
0.007423 0.065228 -0.033084 0.200781 0.979400 -0.020295
0.026622 -0.129240 -0.028960 0.269295 0.774102 -0.572893
0.025111 -0.125033 -0.032240 0.286508 0.897702 -0.334666
0.036493 -0.127999 -0.025846 0.413862 0.853389 -0.316813
0.039706 -0.114974 -0.026363 0.479110 0.877712 -0.002625
0.025862 -0.079996 -0.031355 0.323374 0.945494 -0.037751
0.022262 -0.006935 -0.029952 0.332377 0.943083 0.007782
0.021938 -0.112975 -0.034287 0.226569 0.973937 -0.009644
0.032238 -0.113205 -0.030427 0.425001 0.902615 -0.067995
3 0 1 2
3 2 3 4
3 4 3 5
3 4 5 6
3 3 7 5
3 5 8 6
3 7 9 5
3 8 5 10
3 5 9 10
3 9 11 10
3 10 11 12
3 10 12 13
3 10 13 14
3 12 15 13
3 16 0 17
3 18 1 16
3 1 0 16
3 17 0 19
3 20 1 18
3 19 0 21
3 1 20 2
3 0 2 22
3 21 0 22
3 20 23 2
3 22 2 4
3 23 24 2
3 2 24 3
3 6 25 4
3 24 26 3
3 3 26 7
3 7 27 9
3 8 10 28
3 9 27 11
3 28 10 14
3 11 27 12
3 27 15 12
3 29 15 27
3 29 30 15
3 13 15 31
3 15 30 31
3 13 31 32
3 33 34 35
3 35 34 36
3 21 22 37
3 38 23 20
3 22 4 37
3 25 37 4
3 24 39 26
3 7 26 40
3 41 6 42
3 6 8 42
3 43 27 7
3 8 28 42
3 28 14 42
3 14 13 44
3 29 45 30
3 44 13 32
3 32 31 46
3 47 48 33
3 35 47 33
3 20 18 49
3 39 40 26
3 6 41 25
3 50 7 40
3 41 42 51
3 50 43 7
3 27 43 52
3 53 27 52
3 42 14 54
3 54 14 44
3 44 32 46
3 31 30 55
3 31 55 46
3 48 47 56
3 36 57 35
3 49 58 20
3 20 58 38
3 59 23 38
3 24 23 59
3 59 39 24
3 25 41 60
3 41 51 60
3 61 51 42
3 61 42 62
3 62 42 54
3 63 54 44
3 30 45 64
3 55 30 65
3 55 66 46
3 55 67 66
3 66 67 68
3 35 69 47
3 57 69 35
3 37 25 70
3 71 72 73
3 64 65 30
3 74 55 65
3 44 46 75
3 74 76 55
3 55 76 67
3 66 75 46
3 68 75 66
3 36 77 57
3 78 79 80
3 81 82 43
3 43 82 52
3 53 83 27
3 63 44 75
3 84 67 85
3 68 67 84
3 56 47 86
3 57 87 69
3 49 88 58
3 38 58 89
3 89 59 38
3 39 90 40
3 50 40 90
3 25 91 92
3 93 83 94
3 95 93 94
3 95 96 93
3 45 97 64
3 98 65 64
3 84 99 68
3 100 87 57
3 78 80 101
3 79 37 80
3 25 102 70
3 50 90 103
3 103 104 50
3 105 50 104
3 81 106 82
3 91 107 92
3 108 62 54
3 63 108 54
3 65 98 109
3 74 65 109
3 63 75 110
3 75 68 111
3 112 113 85
3 84 85 113
3 114 115 116
3 70 117 37
3 39 59 118
3 39 118 90
3 107 119 120
3 120 119 121
3 122 123 53
3 119 62 124
3 124 121 119
3 53 123 83
3 125 96 95
3 96 125 97
3 97 126 64
3 126 98 64
3 74 127 76
3 109 127 74
3 99 128 68
3 129 68 128
3 116 130 131
3 116 131 114
3 115 114 132
3 47 133 86
3 80 37 117
3 89 58 134
3 25 92 135
3 103 90 136
3 92 107 120
3 122 137 138
3 83 123 139
3 124 62 108
3 111 110 75
3 131 140 114
3 134 88 141
3 58 88 134
3 117 70 142
3 70 102 142
3 143 118 59
3 25 135 102
3 136 144 145
3 104 103 146
3 147 148 149
3 150 151 105
3 137 105 151
3 137 151 152
3 138 123 122
3 83 139 94
3 126 97 153
3 63 154 108
3 129 128 155
3 115 132 156
3 140 131 157
3 69 87 158
3 159 158 87
3 160 161 101
3 101 80 160
3 117 142 162
3 118 163 90
3 90 163 136
3 148 147 164
3 149 148 150
3 120 135 92
3 165 105 104
3 105 165 150
3 139 123 166
3 98 126 167
3 98 167 109
3 110 154 63
3 127 109 168
3 111 169 110
3 170 113 112
3 115 156 171
3 156 132 172
3 173 174 175
3 173 176 174
3 176 177 178
3 88 179 141
3 100 159 87
3 59 89 143
3 180 165 104
3 181 182 183
3 121 124 184
3 95 94 185
3 95 185 125
3 125 186 97
3 168 109 167
3 171 156 187
3 177 188 178
3 177 176 173
3 80 117 160
3 141 189 134
3 89 134 189
3 190 144 136
3 148 191 150
3 150 191 151
3 137 152 138
3 138 192 123
3 123 192 166
3 94 139 193
3 126 153 194
3 126 194 167
3 108 154 195
3 196 113 170
3 197 155 128
3 198 199 200
3 201 199 198
3 202 201 198
3 156 172 187
3 203 173 175
3 142 102 204
3 102 135 204
3 136 205 190
3 206 207 208
3 185 94 209
3 153 97 186
3 210 154 110
3 211 196 170
3 187 172 212
3 213 188 177
3 47 214 133
3 161 159 100
3 189 141 215
3 117 162 216
3 189 217 89
3 218 219 220
3 220 221 218
3 152 151 222
3 135 120 223
3 138 152 222
3 125 224 186
3 124 195 184
3 124 108 195
3 167 225 168
3 169 226 110
3 155 197 227
3 200 228 198
3 229 141 179
3 230 47 69
3 117 216 160
3 215 231 189
3 162 142 204
3 143 89 217
3 118 143 232
3 151 191 222
3 120 121 223
3 121 184 223
3 207 206 233
3 226 210 110
3 227 197 234
3 235 198 228
3 202 198 235
3 177 173 236
3 237 161 160
3 217 232 143
3 118 232 238
3 163 118 238
3 163 205 136
3 190 205 239
3 240 220 219
3 139 166 193
3 185 241 125
3 153 242 194
3 187 212 243
3 158 230 69
3 237 159 161
3 141 229 215
3 244 160 216
3 189 231 217
3 245 163 238
3 219 239 240
3 246 221 220
3 222 247 138
3 223 184 248
3 186 249 153
3 170 250 211
3 173 203 251
3 213 177 236
3 179 214 229
3 47 230 214
3 217 231 252
3 205 163 245
3 253 239 205
3 220 240 254
3 248 184 255
3 224 256 186
3 257 249 186
3 233 258 207
3 185 209 241
3 184 195 255
3 154 259 195
3 154 210 259
3 259 210 226
3 259 226 260
3 261 235 228
3 236 173 251
3 216 262 244
3 204 263 162
3 232 217 252
3 232 252 238
3 245 264 205
3 240 239 253
3 135 223 265
3 254 240 266
3 247 192 138
3 267 256 224
3 268 269 270
3 268 270 207
3 271 194 242
3 255 195 272
3 272 195 259
3 212 273 243
3 213 236 274
3 204 135 275
3 205 264 253
3 240 253 266
3 253 264 276
3 277 266 253
3 254 266 278
3 220 254 279
3 246 220 279
3 223 248 265
3 280 269 268
3 281 256 267
3 249 257 282
3 268 207 258
3 283 241 209
3 194 271 167
3 227 234 284
3 243 273 285
3 273 212 286
3 236 251 287
3 263 204 275
3 277 253 276
3 278 279 254
3 248 288 265
3 248 255 288
3 289 282 269
3 290 289 269
3 290 269 280
3 192 291 166
3 280 292 293
3 193 166 294
3 283 258 233
3 167 271 295
3 167 295 225
3 211 250 296
3 234 297 284
3 251 203 298
3 299 159 237
3 244 262 299
3 216 300 262
3 300 216 162
3 300 162 301
3 301 162 263
3 238 302 303
3 265 275 135
3 246 279 304
3 266 277 305
3 306 266 305
3 277 276 307
3 308 309 310
3 310 307 308
3 311 289 312
3 312 289 290
3 313 290 314
3 290 280 314
3 280 293 314
3 282 315 249
3 293 292 316
3 317 283 209
3 295 318 225
3 296 319 211
3 284 297 320
3 261 228 321
3 322 251 298
3 229 214 323
3 158 324 230
3 323 215 229
3 215 323 231
3 252 231 325
3 238 252 302
3 279 278 326
3 304 279 326
3 327 309 328
3 309 308 329
3 308 307 330
3 307 331 330
3 308 330 332
3 330 333 332
3 330 331 334
3 332 333 335
3 334 331 336
3 336 337 334
3 333 338 335
3 333 313 338
3 289 334 337
3 338 313 314
3 289 337 282
3 337 315 282
3 166 291 294
3 283 339 258
3 340 255 272
3 259 260 341
3 251 322 287
3 236 287 274
3 159 342 158
3 299 262 343
3 344 300 301
3 303 302 345
3 303 345 346
3 328 309 347
3 329 347 309
3 307 276 331
3 329 308 348
3 332 348 308
3 335 348 332
3 348 335 349
3 350 351 352
3 353 351 354
3 355 242 356
3 242 355 271
3 317 339 283
3 340 272 357
3 271 358 295
3 259 357 272
3 341 359 259
3 321 360 261
3 360 361 261
3 362 363 364
3 322 365 287
3 344 262 300
3 275 366 263
3 346 367 368
3 304 326 369
3 370 371 372
3 247 222 373
3 370 372 374
3 375 349 335
3 376 350 352
3 352 351 377
3 351 353 377
3 374 378 356
3 288 255 379
3 354 380 353
3 381 380 354
3 271 355 382
3 294 317 209
3 271 382 358
3 357 259 359
3 383 319 296
3 384 385 362
3 384 362 364
3 364 363 386
3 274 287 365
3 230 387 214
3 324 388 230
3 389 159 299
3 158 342 324
3 344 343 262
3 323 325 231
3 325 302 252
3 345 367 346
3 328 347 390
3 391 222 191
3 392 347 329
3 368 367 371
3 371 367 372
3 329 393 392
3 393 394 395
3 372 378 374
3 247 396 192
3 379 397 288
3 378 355 356
3 340 379 255
3 398 339 317
3 357 399 340
3 400 319 383
3 401 360 321
3 401 402 360
3 384 364 402
3 402 361 360
3 402 364 386
3 402 386 361
3 301 263 366
3 265 403 275
3 391 246 304
3 392 393 395
3 288 397 265
3 395 394 404
3 404 394 352
3 352 377 404
3 192 396 291
3 405 406 407
3 358 382 408
3 295 358 409
3 409 318 295
3 410 318 409
3 297 411 412
3 320 297 412
3 384 402 401
3 413 387 230
3 389 342 159
3 299 343 389
3 366 275 403
3 392 414 415
3 373 222 416
3 392 395 414
3 373 396 247
3 417 418 419
3 355 378 420
3 419 418 421
3 405 421 418
3 422 421 405
3 407 422 405
3 406 423 407
3 424 317 294
3 383 425 400
3 388 413 230
3 323 426 325
3 325 427 302
3 428 366 403
3 265 429 403
3 430 431 432
3 367 433 434
3 367 434 372
3 372 434 378
3 378 434 435
3 431 417 436
3 436 417 419
3 435 437 378
3 438 439 440
3 441 439 438
3 437 420 378
3 439 442 440
3 291 443 444
3 440 442 445
3 379 340 446
3 447 398 317
3 357 359 448
3 359 341 448
3 448 341 449
3 409 450 410
3 411 400 425
3 412 411 425
3 342 388 324
3 451 389 343
3 426 452 325
3 366 428 301
3 302 427 345
3 367 345 453
3 347 454 390
3 455 304 369
3 391 304 455
3 456 391 455
3 457 415 414
3 222 391 416
3 431 436 432
3 397 429 265
3 458 459 460
3 458 441 459
3 441 438 459
3 397 379 461
3 291 444 294
3 442 462 445
3 445 462 382
3 442 463 462
3 379 446 461
3 464 382 462
3 382 464 408
3 447 465 398
3 317 424 447
3 446 340 399
3 466 409 358
3 342 467 468
3 467 342 389
3 426 323 469
3 301 428 344
3 470 325 452
3 403 429 471
3 345 427 453
3 367 453 433
3 391 456 416
3 432 472 430
3 472 432 473
3 432 460 473
3 432 458 460
3 291 396 474
3 443 291 474
3 475 476 477
3 478 461 446
3 479 480 481
3 446 399 478
3 466 358 408
3 357 482 399
3 448 482 357
3 483 450 409
3 484 485 450
3 450 485 410
3 448 485 484
3 448 449 485
3 387 413 388
3 468 388 342
3 428 486 344
3 427 325 470
3 428 403 471
3 487 390 454
3 455 369 487
3 454 488 489
3 490 472 473
3 488 491 489
3 474 396 492
3 475 493 476
3 478 399 482
3 466 483 409
3 494 323 214
3 468 451 495
3 343 495 451
3 486 343 344
3 426 469 452
3 428 496 486
3 473 497 490
3 454 489 498
3 373 416 499
3 373 499 396
3 500 429 461
3 429 397 461
3 444 501 294
3 502 450 483
3 502 484 450
3 448 484 502
3 482 448 502
3 214 387 494
3 503 428 471
3 454 504 487
3 455 487 505
3 506 490 497
3 500 471 429
3 499 492 396
3 500 461 507
3 507 461 508
3 461 478 508
3 509 424 294
3 424 509 510
3 493 511 476
3 512 511 493
3 424 510 513
3 424 513 514
3 515 516 464
3 464 516 408
3 408 516 466
3 466 516 483
3 517 494 387
3 388 517 387
3 495 343 486
3 469 323 494
3 496 428 503
3 503 471 500
3 487 504 505
3 454 498 504
3 456 518 416
3 499 416 518
3 519 474 492
3 520 500 507
3 474 519 443
3 519 507 443
3 443 507 521
3 507 522 521
3 501 509 294
3 515 523 516
3 523 524 516
3 516 524 483
3 524 502 483
3 517 388 525
3 468 525 388
3 525 468 495
3 495 486 526
3 527 528 497
3 528 529 497
3 529 530 497
3 497 530 506
3 530 531 506
3 532 533 534
3 535 536 456
3 518 456 536
3 499 520 519
3 499 519 492
3 520 507 519
3 537 501 444
3 509 501 538
3 508 478 539
3 538 510 509
3 478 482 539
3 523 540 524
3 540 502 524
3 540 482 502
3 526 525 495
3 526 486 541
3 541 486 496
3 542 541 496
3 542 496 503
3 543 544 545
3 543 546 544
3 545 544 527
3 544 528 527
3 503 500 547
3 547 500 548
3 549 530 529
3 550 531 530
3 550 535 531
3 548 500 551
3 500 499 551
3 500 520 499
3 482 552 539
3 552 482 540
3 552 540 523
3 553 554 555
3 553 525 554
3 554 525 526
3 556 546 543
3 546 557 544
3 542 503 547
3 557 528 544
3 528 547 548
3 528 548 529
3 548 558 529
3 529 558 549
3 550 536 535
3 548 551 558
3 526 559 554
3 555 560 556
3 554 560 555
3 554 559 560
3 526 541 559
3 556 560 546
3 559 546 560
3 559 542 546
3 541 542 559
3 546 542 557
3 542 547 557
3 528 557 547
151 0 1 2 3 4 5 6 7 8 9 11 12 13 14 18 20 21 22 23 24 25 26 28 29 30 31 32 33 34 37 38 39 40 43 44 47 48 51 54 55 56 57 60 61 63 65 66 67 70 71 72 75 76 77 78 79 86 87 88 89 90 95 96 97 98 99 106 107 108 109 113 114 115 116 122 123 128 129 130 135 136 139 140 141 143 144 153 154 155 156 157 158 159 160 161 164 166 172 177 179 187 191 197 198 205 206 210 214 215 218 231 232 242 251 263 296 297 298 309 315 321 322 340 342 353 354 355 356 357 372 373 376 377 397 398 399 400 401 402 403 425 426 427 429 431 432 435 437 438 452 721 4.991021 -0.888732 -0.120427 -0.115704 0.280385 5.645873 -0.535848 -0.514834 -0.774457 -3.658341 -0.884117 -0.849446 0.370498 -0.015362 0.636718 0.807827 0.579942 0.014659 0.301010 1.033450 0
49 104 105 121 131 147 173 174 180 182 183 202 203 208 213 214 225 230 239 240 244 245 246 248 256 261 264 265 272 281 282 290 293 294 295 301 308 310 314 315 320 337 338 339 359 363 366 407 474 476 4.139947 -2.462306 -0.491309 -0.472042 0.299465 5.598964 -0.546505 -0.525073 -2.891339 -2.939017 -0.737052 -0.708148 0.344690 0.030422 0.636128 0.807260 0.687038 0.025820 0.172032 1.047303 1
34 150 168 169 184 185 213 214 219 233 234 236 248 275 279 283 289 307 315 319 347 383 385 387 463 472 481 485 501 505 506 509 525 593 621 3.184172 -3.349820 -0.655458 -0.629754 0.329145 5.451563 -0.578809 -0.556110 -3.916810 -2.260161 -0.564494 -0.542357 0.334272 0.047146 0.628563 0.799991 0.683291 0.041310 0.156521 1.035531 2
54 10 17 19 27 45 46 49 50 52 53 62 64 68 69 80 81 82 83 84 85 93 100 101 133 134 137 138 171 188 189 190 207 209 211 212 215 227 243 274 361 378 380 423 424 428 430 433 450 451 453 454 455 456 477 4.206675 1.535536 0.526711 0.506056 0.292038 5.921289 -0.464356 -0.446146 2.794153 -2.937624 -0.768276 -0.738147 0.259055 0.004399 0.689737 0.858767 0.538302 0.029111 0.213951 0.981223 3
41 117 127 132 142 145 146 148 149 165 167 170 175 176 178 201 221 226 241 247 249 250 255 257 258 270 271 273 287 288 316 329 330 351 367 380 502 504 507 594 673 697 2.225197 3.382152 0.793966 0.762830 0.220560 5.556415 -0.557524 -0.535661 4.537460 -1.932999 -0.376940 -0.362158 0.243150 0.043869 0.618501 0.790324 0.542363 0.060156 0.163485 0.999988 4
