ply
format ascii 1.0
obj_info EisKaffe-00000.jpg
obj_info EisKaffe-00001.jpg
obj_info EisKaffe-00002.jpg
obj_info EisKaffe-00003.jpg
obj_info EisKaffe-00004.jpg
obj_info EisKaffe-00005.jpg
obj_info EisKaffe-00006.jpg
obj_info EisKaffe-00007.jpg
obj_info EisKaffe-00008.jpg
obj_info EisKaffe-00009.jpg
obj_info EisKaffe-00010.jpg
element vertex 102
property float x
property float y
property float z
property float nx
property float ny
property float nz
element face 75
property list uchar uint vertex_indices
element pass 11
property list uchar uint face_indices
property float m0
property float m1
property float m2
property float m3
property float m4
property float m5
property float m6
property float m7
property float m8
property float m9
property float m10
property float m11
property float m12
property float m13
property float m14
property float m15
property float x
property float y
property float w
property float h
property uchar tex_index
end_header
0.000823 0.064627 0.002138 0.031831 0.997803 -0.058016
0.032886 0.062407 0.031707 0.031861 0.997803 -0.058046
0.039243 0.062565 0.022802 0.031831 0.997803 -0.058016
-0.004197 -0.065869 -0.001571 -0.031831 -0.997803 0.058016
0.034221 -0.067932 0.019093 -0.031831 -0.997803 0.057985
0.027864 -0.068090 0.027998 -0.031861 -0.997803 0.058016
0.043186 0.062853 0.012599 0.031831 0.997803 -0.058046
0.038166 -0.067644 0.008890 -0.031831 -0.997803 0.057985
0.044468 0.063252 0.001740 0.031831 0.997803 -0.058016
0.039447 -0.067245 -0.001971 -0.031831 -0.997803 0.058016
0.043008 0.063737 -0.009095 0.031800 0.997803 -0.058046
0.037986 -0.066760 -0.012806 -0.031831 -0.997803 0.058046
0.038896 0.064278 -0.019224 0.031831 0.997803 -0.058046
0.033876 -0.066219 -0.022934 -0.031831 -0.997803 0.058016
0.032393 0.064841 -0.028011 0.031861 0.997803 -0.058016
0.027371 -0.065655 -0.031721 -0.031831 -0.997803 0.058046
0.023906 0.065391 -0.034903 0.031861 0.997803 -0.057985
0.018885 -0.065106 -0.038614 -0.031800 -0.997803 0.058046
0.013969 0.065894 -0.039469 0.031861 0.997803 -0.057985
0.008947 -0.064605 -0.043178 -0.031861 -0.997803 0.058046
0.003205 0.066316 -0.041419 0.031770 0.997803 -0.058016
-0.001816 -0.064182 -0.045129 -0.031861 -0.997803 0.058016
-0.007708 0.066631 -0.040632 0.031831 0.997803 -0.058016
-0.012729 -0.063865 -0.044343 -0.031770 -0.997803 0.058016
-0.018085 0.066822 -0.037158 0.031861 0.997803 -0.058016
-0.023106 -0.063676 -0.040868 -0.031770 -0.997803 0.058016
-0.027273 0.066874 -0.031215 0.031861 0.997803 -0.058016
-0.032295 -0.063624 -0.034925 -0.031861 -0.997772 0.058077
-0.034697 0.066786 -0.023177 0.031861 0.997803 -0.058016
-0.039719 -0.063711 -0.026887 -0.031861 -0.997803 0.058046
-0.039889 0.066561 -0.013548 0.031831 0.997803 -0.057985
-0.044909 -0.063936 -0.017257 -0.031800 -0.997803 0.057985
-0.042522 0.066215 -0.002933 0.031831 0.997803 -0.057985
-0.047543 -0.064283 -0.006642 -0.031800 -0.997803 0.058016
-0.042432 0.065769 0.008001 0.031831 0.997803 -0.058046
-0.047453 -0.064728 0.004291 -0.031831 -0.997803 0.058046
-0.039624 0.065252 0.018568 0.031831 0.997803 -0.058077
-0.044645 -0.065245 0.014857 -0.031800 -0.997803 0.058046
-0.034274 0.064695 0.028100 0.031861 0.997803 -0.058016
-0.039295 -0.065801 0.024390 -0.031861 -0.997803 0.057985
-0.026720 0.064134 0.036001 0.031800 0.997803 -0.058046
-0.031741 -0.066363 0.032292 -0.031861 -0.997803 0.057955
-0.017434 0.063605 0.041776 0.031831 0.997803 -0.058046
-0.022455 -0.066893 0.038066 -0.031800 -0.997803 0.058016
-0.007002 0.063139 0.045059 0.031831 0.997803 -0.058016
-0.012023 -0.067359 0.041350 -0.031800 -0.997803 0.058016
0.003923 0.062767 0.045646 0.031800 0.997803 -0.058046
-0.001098 -0.067730 0.041936 -0.031831 -0.997803 0.058016
0.014653 0.062512 0.043499 0.031831 0.997803 -0.058046
0.009631 -0.067986 0.039789 -0.031831 -0.997803 0.058016
0.024513 0.062390 0.038753 0.031861 0.997772 -0.058077
0.019492 -0.068108 0.035043 -0.031831 -0.997803 0.058016
0.032886 0.062407 0.031707 0.734092 0.019379 0.678762
0.027864 -0.068090 0.027998 0.734092 0.019379 0.678762
0.034221 -0.067932 0.019093 0.879696 -0.000488 0.475478
0.039243 0.062565 0.022802 0.879696 -0.000488 0.475478
0.038166 -0.067644 0.008890 0.969939 -0.020356 0.242378
0.043186 0.062853 0.012599 0.969939 -0.020356 0.242378
0.039447 -0.067245 -0.001971 0.999207 -0.038942 -0.005982
0.044468 0.063252 0.001740 0.999207 -0.038942 -0.005982
0.037986 -0.066760 -0.012806 0.965636 -0.055055 -0.253883
0.043008 0.063737 -0.009095 0.965636 -0.055055 -0.253883
0.033876 -0.066219 -0.022934 0.871395 -0.067721 -0.485824
0.038896 0.064278 -0.019224 0.871395 -0.067721 -0.485824
0.027371 -0.065655 -0.031721 0.722495 -0.076113 -0.687155
0.032393 0.064841 -0.028011 0.722495 -0.076113 -0.687155
0.018885 -0.065106 -0.038614 0.528245 -0.079745 -0.845332
0.023906 0.065391 -0.034903 0.528245 -0.079745 -0.845332
0.008947 -0.064605 -0.043178 0.300790 -0.078372 -0.950438
0.013969 0.065894 -0.039469 0.300790 -0.078372 -0.950438
-0.001816 -0.064182 -0.045129 0.054476 -0.072054 -0.995880
0.003205 0.066316 -0.041419 0.054476 -0.072054 -0.995880
-0.012729 -0.063865 -0.044343 -0.195288 -0.061220 -0.978820
-0.007708 0.066631 -0.040632 -0.195288 -0.061220 -0.978820
-0.023106 -0.063676 -0.040868 -0.432875 -0.046541 -0.900235
-0.018085 0.066822 -0.037158 -0.432875 -0.046541 -0.900235
-0.032295 -0.063624 -0.034925 -0.643269 -0.028932 -0.765069
-0.027273 0.066874 -0.031215 -0.643269 -0.028932 -0.765069
-0.039719 -0.063711 -0.026887 -0.813288 -0.009491 -0.581744
-0.034697 0.066786 -0.023177 -0.813288 -0.009491 -0.581744
-0.044909 -0.063936 -0.017257 -0.932188 0.010498 -0.361766
-0.039889 0.066561 -0.013548 -0.932188 0.010498 -0.361766
-0.047543 -0.064283 -0.006642 -0.992401 0.029878 -0.119114
-0.042522 0.066215 -0.002933 -0.992401 0.029878 -0.119114
-0.047453 -0.064728 0.004291 -0.990234 0.047365 0.130955
-0.042432 0.065769 0.008001 -0.990234 0.047365 0.130955
-0.044645 -0.065245 0.014857 -0.925810 0.061892 0.372814
-0.039624 0.065252 0.018568 -0.925810 0.061892 0.372814
-0.039295 -0.065801 0.024390 -0.803278 0.072481 0.591144
-0.034274 0.064695 0.028100 -0.803278 0.072481 0.591144
-0.031741 -0.066363 0.032292 -0.630329 0.078555 0.772332
-0.026720 0.064134 0.036001 -0.630329 0.078555 0.772332
-0.022455 -0.066893 0.038066 -0.417798 0.079684 0.905026
-0.017434 0.063605 0.041776 -0.417798 0.079684 0.905026
-0.012023 -0.067359 0.041350 -0.179052 0.075808 0.980895
-0.007002 0.063139 0.045059 -0.179052 0.075808 0.980895
-0.001098 -0.067730 0.041936 0.070956 0.067171 0.995209
0.003923 0.062767 0.045646 0.070956 0.067171 0.995209
0.009631 -0.067986 0.039789 0.316568 0.054323 0.946989
0.014653 0.062512 0.043499 0.316568 0.054323 0.946989
0.019492 -0.068108 0.035043 0.542314 0.038057 0.839290
0.024513 0.062390 0.038753 0.542314 0.038057 0.839290
3 0 1 2
3 3 4 5
3 0 2 6
3 3 7 4
3 0 6 8
3 3 9 7
3 0 8 10
3 3 11 9
3 0 10 12
3 3 13 11
3 0 12 14
3 3 15 13
3 0 14 16
3 3 17 15
3 0 16 18
3 3 19 17
3 0 18 20
3 3 21 19
3 0 20 22
3 3 23 21
3 0 22 24
3 3 25 23
3 0 24 26
3 3 27 25
3 0 26 28
3 3 29 27
3 0 28 30
3 3 31 29
3 0 30 32
3 3 33 31
3 0 32 34
3 3 35 33
3 0 34 36
3 3 37 35
3 0 36 38
3 3 39 37
3 0 38 40
3 3 41 39
3 0 40 42
3 3 43 41
3 0 42 44
3 3 45 43
3 0 44 46
3 3 47 45
3 0 46 48
3 3 49 47
3 0 48 50
3 3 51 49
3 1 0 50
3 3 5 51
4 52 53 54 55
4 55 54 56 57
4 57 56 58 59
4 59 58 60 61
4 61 60 62 63
4 63 62 64 65
4 65 64 66 67
4 67 66 68 69
4 69 68 70 71
4 71 70 72 73
4 73 72 74 75
4 75 74 76 77
4 77 76 78 79
4 79 78 80 81
4 81 80 82 83
4 83 82 84 85
4 85 84 86 87
4 87 86 88 89
4 89 88 90 91
4 91 90 92 93
4 93 92 94 95
4 95 94 96 97
4 97 96 98 99
4 99 98 100 101
4 53 52 101 100
3 54 55 56 -3.446472 -2.469066 -0.668126 -0.641925 0.520720 5.503762 -0.562193 -0.540147 -3.665974 3.108292 0.566431 0.544218 0.320223 -0.170611 0.725723 0.893342 0.612182 0.109529 0.130532 0.418136 0
1 57 -4.249692 -1.668485 -0.502851 -0.483132 0.511150 5.457187 -0.572760 -0.550299 -2.695835 3.672117 0.708791 0.680995 0.316161 -0.172810 0.725659 0.893281 0.671606 0.107576 0.069398 0.403685 1
2 58 59 -4.891448 -0.448584 -0.246158 -0.236505 0.509955 5.336717 -0.598197 -0.574738 -1.184219 4.167421 0.815393 0.783417 0.335872 -0.169538 0.722381 0.890131 0.674065 0.108047 0.103166 0.404230 2
1 60 -4.963495 1.201098 0.102256 0.098246 0.444520 5.216683 -0.623918 -0.599451 0.868799 4.170462 0.826782 0.794359 0.362754 -0.167691 0.713770 0.881858 0.703142 0.103315 0.074424 0.399282 3
1 61 -4.645268 2.058232 0.291334 0.279909 0.405508 5.245782 -0.619245 -0.594961 1.961054 3.780823 0.784193 0.753440 0.394244 -0.177448 0.725553 0.893179 0.721308 0.100835 0.074736 0.398682 4
1 62 -3.917474 3.093519 0.487970 0.468834 0.331710 5.076684 -0.652502 -0.626914 3.183089 3.272092 0.647630 0.622233 0.395688 -0.170917 0.723046 0.890769 0.718134 0.103875 0.075184 0.386934 5
2 52 53 -2.017328 -3.275888 -0.827736 -0.795276 0.496436 5.582528 -0.545117 -0.523739 -4.612226 2.037919 0.317805 0.305342 0.363926 -0.242704 0.725039 0.892685 0.617909 0.071403 0.095361 0.424001 6
1 51 -0.095836 -3.802381 -0.886758 -0.851984 0.414454 5.594960 -0.544740 -0.523378 -5.040608 0.536183 -0.014720 -0.014143 0.337345 -0.235507 0.709563 0.877815 0.618599 0.071686 0.064426 0.414480 7
2 50 74 1.651652 -3.639942 -0.838544 -0.805660 0.369549 5.668461 -0.528500 -0.507775 -4.766987 -0.817648 -0.317539 -0.305086 0.339232 -0.241811 0.720317 0.888148 0.599966 0.068705 0.094745 0.425798 8
1 73 3.209718 -3.121230 -0.675841 -0.649337 0.288185 5.629562 -0.539565 -0.518406 -3.899148 -2.148285 -0.579143 -0.556432 0.318093 -0.230855 0.702267 0.870806 0.599281 0.070692 0.065297 0.418047 9
1 72 4.012686 -2.511150 -0.530747 -0.509934 0.250329 5.640306 -0.537682 -0.516597 -3.069915 -2.816071 -0.715894 -0.687819 0.308556 -0.234666 0.704616 0.873062 0.590055 0.069382 0.065204 0.418828 10
