ply
format ascii 1.0
comment Created by Blender3D 249 - www.blender.org, source file: 
element vertex 24
property float x
property float y
property float z
property float nx
property float ny
property float nz
element face 6
property list uchar uint vertex_indices
end_header
-247.880005 131.629272 965.901428 -0.999939 -0.002380 -0.009705
-140.156509 123.315582 1051.610596 -0.999939 -0.002380 -0.009705
-119.696098 315.192688 1044.508545 -0.999939 -0.002380 -0.009705
-227.418869 323.507263 958.798523 -0.999939 -0.002380 -0.009705
-205.203461 125.071663 911.588135 0.999939 0.002380 0.009705
-184.742950 316.949768 904.485962 0.999939 0.002380 0.009705
-77.018013 308.634979 990.196472 0.999939 0.002380 0.009705
-97.480560 116.757111 997.299500 0.999939 0.002380 0.009705
-247.880005 131.629272 965.901428 -0.002380 0.999969 0.000000
-205.203461 125.071663 911.588135 -0.002380 0.999969 0.000000
-97.480560 116.757111 997.299500 -0.002380 0.999969 0.000000
-140.156509 123.315582 1051.610596 -0.002380 0.999969 0.000000
-140.156509 123.315582 1051.610596 0.009705 0.000000 -0.999939
-97.480560 116.757111 997.299500 0.009705 0.000000 -0.999939
-77.018013 308.634979 990.196472 0.009705 0.000000 -0.999939
-119.696098 315.192688 1044.508545 0.009705 0.000000 -0.999939
-119.696098 315.192688 1044.508545 0.002380 -0.999969 0.000000
-77.018013 308.634979 990.196472 0.002380 -0.999969 0.000000
-184.742950 316.949768 904.485962 0.002380 -0.999969 0.000000
-227.418869 323.507263 958.798523 0.002380 -0.999969 0.000000
-205.203461 125.071663 911.588135 -0.009735 0.000000 0.999939
-247.880005 131.629272 965.901428 -0.009735 0.000000 0.999939
-227.418869 323.507263 958.798523 -0.009735 0.000000 0.999939
-184.742950 316.949768 904.485962 -0.009735 0.000000 0.999939 
4 0 1 2 3 
4 4 5 6 7 
4 8 9 10 11 
4 12 13 14 15 
4 16 17 18 19 
4 20 21 22 23 
