ply
format ascii 1.0
comment Created by Blender3D 249 - www.blender.org, source file: 
element vertex 24
property float x
property float y
property float z
property float nx
property float ny
property float nz
element face 6
property list uchar uint vertex_indices
end_header
-422.554291 -91.589478 719.314148 -0.999939 -0.002380 -0.009705
-324.108032 -78.149010 814.955200 -0.999939 -0.002380 -0.009705
-323.779968 113.020737 787.753906 -0.999939 -0.002380 -0.009705
-422.225464 99.581169 692.111938 -0.999939 -0.002380 -0.009705
-373.980988 -98.647400 670.272888 0.999939 0.002380 0.009705
-373.652893 92.523354 643.071411 0.999939 0.002380 0.009705
-275.205261 105.963028 738.714050 0.999939 0.002380 0.009705
-275.535461 -85.207619 765.916199 0.999939 0.002380 0.009705
-422.554291 -91.589478 719.314148 -0.002380 0.999969 0.000000
-373.980988 -98.647400 670.272888 -0.002380 0.999969 0.000000
-275.535461 -85.207619 765.916199 -0.002380 0.999969 0.000000
-324.108032 -78.149010 814.955200 -0.002380 0.999969 0.000000
-324.108032 -78.149010 814.955200 0.009705 0.000000 -0.999939
-275.535461 -85.207619 765.916199 0.009705 0.000000 -0.999939
-275.205261 105.963028 738.714050 0.009705 0.000000 -0.999939
-323.779968 113.020737 787.753906 0.009705 0.000000 -0.999939
-323.779968 113.020737 787.753906 0.002380 -0.999969 0.000000
-275.205261 105.963028 738.714050 0.002380 -0.999969 0.000000
-373.652893 92.523354 643.071411 0.002380 -0.999969 0.000000
-422.225464 99.581169 692.111938 0.002380 -0.999969 0.000000
-373.980988 -98.647400 670.272888 -0.009735 0.000000 0.999939
-422.554291 -91.589478 719.314148 -0.009735 0.000000 0.999939
-422.225464 99.581169 692.111938 -0.009735 0.000000 0.999939
-373.652893 92.523354 643.071411 -0.009735 0.000000 0.999939 
4 0 1 2 3 
4 4 5 6 7 
4 8 9 10 11 
4 12 13 14 15 
4 16 17 18 19 
4 20 21 22 23 
