ply
format ascii 1.0
comment Created by Blender3D 249 - www.blender.org, source file: 
element vertex 24
property float x
property float y
property float z
property float nx
property float ny
property float nz
element face 6
property list uchar uint vertex_indices
end_header
-148.761627 263.276794 730.120117 -0.999939 -0.002380 -0.009705
-42.169472 249.887726 816.597778 -0.999939 -0.002380 -0.009705
-39.144379 59.687447 783.422546 -0.999939 -0.002380 -0.009705
-145.737137 73.075378 696.945557 -0.999939 -0.002380 -0.009705
-192.793182 253.380585 782.822205 0.999939 0.002380 0.009705
-189.768066 63.179298 749.646851 0.999939 0.002380 0.009705
-83.174370 49.791016 836.125916 0.999939 0.002380 0.009705
-86.199005 239.992676 869.299072 0.999939 0.002380 0.009705
-148.761627 263.276794 730.120117 -0.002380 0.999969 0.000000
-192.793182 253.380585 782.822205 -0.002380 0.999969 0.000000
-86.199005 239.992676 869.299072 -0.002380 0.999969 0.000000
-42.169472 249.887726 816.597778 -0.002380 0.999969 0.000000
-42.169472 249.887726 816.597778 0.009705 0.000000 -0.999939
-86.199005 239.992676 869.299072 0.009705 0.000000 -0.999939
-83.174370 49.791016 836.125916 0.009705 0.000000 -0.999939
-39.144379 59.687447 783.422546 0.009705 0.000000 -0.999939
-39.144379 59.687447 783.422546 0.002380 -0.999969 0.000000
-83.174370 49.791016 836.125916 0.002380 -0.999969 0.000000
-189.768066 63.179298 749.646851 0.002380 -0.999969 0.000000
-145.737137 73.075378 696.945557 0.002380 -0.999969 0.000000
-192.793182 253.380585 782.822205 -0.009735 0.000000 0.999939
-148.761627 263.276794 730.120117 -0.009735 0.000000 0.999939
-145.737137 73.075378 696.945557 -0.009735 0.000000 0.999939
-189.768066 63.179298 749.646851 -0.009735 0.000000 0.999939 
4 0 1 2 3 
4 4 5 6 7 
4 8 9 10 11 
4 12 13 14 15 
4 16 17 18 19 
4 20 21 22 23 
