ply
format ascii 1.0
comment Created by Blender3D 249 - www.blender.org, source file: 
element vertex 24
property float x
property float y
property float z
property float nx
property float ny
property float nz
element face 6
property list uchar uint vertex_indices
end_header
-13.094398 -597.282471 10163.946289 -0.999939 -0.002380 -0.009705
-150.741379 -600.200500 10155.925781 -0.999939 -0.002380 -0.009705
-150.714996 -781.809570 10221.531250 -0.999939 -0.002380 -0.009705
-13.067963 -778.892822 10229.550781 -0.999939 -0.002380 -0.009705
-8.776222 -620.813171 10098.816406 0.999939 0.002380 0.009705
-8.749832 -802.423218 10164.421875 0.999939 0.002380 0.009705
-146.398804 -805.340332 10156.401367 0.999939 0.002380 0.009705
-146.424301 -623.729614 10090.797852 0.999939 0.002380 0.009705
-13.094398 -597.282471 10163.946289 -0.002380 0.999969 0.000000
-8.776222 -620.813171 10098.816406 -0.002380 0.999969 0.000000
-146.424301 -623.729614 10090.797852 -0.002380 0.999969 0.000000
-150.741379 -600.200500 10155.925781 -0.002380 0.999969 0.000000
-150.741379 -600.200500 10155.925781 0.009705 0.000000 -0.999939
-146.424301 -623.729614 10090.797852 0.009705 0.000000 -0.999939
-146.398804 -805.340332 10156.401367 0.009705 0.000000 -0.999939
-150.714996 -781.809570 10221.531250 0.009705 0.000000 -0.999939
-150.714996 -781.809570 10221.531250 0.002380 -0.999969 0.000000
-146.398804 -805.340332 10156.401367 0.002380 -0.999969 0.000000
-8.749832 -802.423218 10164.421875 0.002380 -0.999969 0.000000
-13.067963 -778.892822 10229.550781 0.002380 -0.999969 0.000000
-8.776222 -620.813171 10098.816406 -0.009735 0.000000 0.999939
-13.094398 -597.282471 10163.946289 -0.009735 0.000000 0.999939
-13.067963 -778.892822 10229.550781 -0.009735 0.000000 0.999939
-8.749832 -802.423218 10164.421875 -0.009735 0.000000 0.999939 
4 0 1 2 3 
4 4 5 6 7 
4 8 9 10 11 
4 12 13 14 15 
4 16 17 18 19 
4 20 21 22 23 
