ply
format ascii 1.0
comment Created by Blender3D 249 - www.blender.org, source file: 
element vertex 24
property float x
property float y
property float z
element face 6
property list uchar uint vertex_indices
end_header
322.232361  240.108078  1777.060303
322.233673  240.108078  1776.922363
322.234131  239.914993  1776.922363
322.232819  239.914993  1777.060303
322.301727  240.108246  1777.061035
322.302216  239.915146  1777.061035
322.303528  239.915146  1776.923096
322.303040  240.108246  1776.923096
322.232361  240.108078  1777.060303
322.301727  240.108246  1777.061035
322.303040  240.108246  1776.923096
322.233673  240.108078  1776.922363
322.233673  240.108078  1776.922363
322.303040  240.108246  1776.923096
322.303528  239.915146  1776.923096
322.234131  239.914993  1776.922363
322.234131  239.914993  1776.922363
322.303528  239.915146  1776.923096
322.302216  239.915146  1777.061035
322.232819  239.914993  1777.060303
322.301727  240.108246  1777.061035
322.232361  240.108078  1777.060303
322.232819  239.914993  1777.060303
322.302216  239.915146  1777.061035
4 0 1 2 3 
4 4 5 6 7 
4 8 9 10 11 
4 12 13 14 15 
4 16 17 18 19 
4 20 21 22 23 
