ply
format ascii 1.0
element vertex 130
property float x
property float y
property float z
property float nx
property float ny
property float nz
element face 96
property list uchar uint vertex_indices
end_header
0.000561 0.075453 0.004243 0.007385 0.998383 0.056124 
-0.015072 0.077009 -0.021361 0.007416 0.998383 0.056093 
-0.019770 0.076844 -0.017812 0.007447 0.998383 0.056063 
-0.000560 -0.075454 -0.004242 -0.007385 -0.998383 -0.056124 
-0.020890 -0.074062 -0.026297 -0.007385 -0.998383 -0.056124 
-0.016193 -0.073897 -0.029846 -0.007385 -0.998383 -0.056154 
-0.023686 0.076626 -0.013415 0.007416 0.998383 0.056093 
-0.024807 -0.074281 -0.021901 -0.007416 -0.998383 -0.056093 
-0.026671 0.076364 -0.008341 0.007385 0.998383 0.056185 
-0.027792 -0.074544 -0.016826 -0.007416 -0.998383 -0.056093 
-0.028609 0.076064 -0.002782 0.007385 0.998383 0.056124 
-0.029730 -0.074841 -0.011267 -0.007416 -0.998383 -0.056154 
-0.029427 0.075743 0.003047 0.007416 0.998383 0.056093 
-0.030547 -0.075163 -0.005439 -0.007416 -0.998383 -0.056093 
-0.029091 0.075411 0.008921 0.007385 0.998383 0.056124 
-0.030211 -0.075495 0.000436 -0.007416 -0.998383 -0.056124 
-0.027617 0.075080 0.014615 0.007416 0.998383 0.056124 
-0.028738 -0.075827 0.006130 -0.007416 -0.998383 -0.056124 
-0.025059 0.074762 0.019911 0.007385 0.998383 0.056124 
-0.026179 -0.076144 0.011426 -0.007416 -0.998383 -0.056124 
-0.021517 0.074473 0.024605 0.007416 0.998383 0.056124 
-0.022637 -0.076435 0.016120 -0.007416 -0.998383 -0.056154 
-0.017126 0.074219 0.028517 0.007416 0.998383 0.056154 
-0.018248 -0.076687 0.020031 -0.007355 -0.998383 -0.056063 
-0.012056 0.074014 0.031495 0.007385 0.998383 0.056124 
-0.013176 -0.076891 0.023010 -0.007416 -0.998383 -0.056093 
-0.006501 0.073864 0.033427 0.007416 0.998383 0.056154 
-0.007621 -0.077042 0.024941 -0.007447 -0.998383 -0.056124 
-0.000674 0.073776 0.034236 0.007385 0.998383 0.056154 
-0.001795 -0.077130 0.025751 -0.007385 -0.998383 -0.056124 
0.005200 0.073751 0.033893 0.007385 0.998383 0.056154 
0.004078 -0.077155 0.025408 -0.007355 -0.998383 -0.056093 
0.010895 0.073793 0.032411 0.007385 0.998383 0.056124 
0.009775 -0.077113 0.023926 -0.007385 -0.998383 -0.056093 
0.016194 0.073897 0.029846 0.007385 0.998383 0.056154 
0.015073 -0.077009 0.021361 -0.007416 -0.998383 -0.056093 
0.020891 0.074062 0.026297 0.007385 0.998383 0.056124 
0.019771 -0.076844 0.017812 -0.007447 -0.998383 -0.056093 
0.024808 0.074281 0.021901 0.007416 0.998383 0.056093 
0.023687 -0.076626 0.013416 -0.007355 -0.998383 -0.056185 
0.027793 0.074543 0.016826 0.007416 0.998383 0.056093 
0.026672 -0.076363 0.008341 -0.007355 -0.998383 -0.056154 
0.029731 0.074841 0.011268 0.007416 0.998383 0.056154 
0.028610 -0.076064 0.002783 -0.007385 -0.998383 -0.056124 
0.030548 0.075163 0.005440 0.007385 0.998383 0.056154 
0.029427 -0.075742 -0.003045 -0.007355 -0.998383 -0.056093 
0.030213 0.075496 -0.000435 0.007385 0.998383 0.056124 
0.029092 -0.075411 -0.008920 -0.007385 -0.998383 -0.056032 
0.028738 0.075827 -0.006129 0.007385 0.998383 0.056124 
0.027618 -0.075080 -0.014615 -0.007385 -0.998383 -0.056124 
0.026179 0.076145 -0.011426 0.007385 0.998383 0.056124 
0.025060 -0.074763 -0.019911 -0.007385 -0.998383 -0.056124 
0.022638 0.076435 -0.016120 0.007355 0.998383 0.056063 
0.021518 -0.074473 -0.024605 -0.007416 -0.998383 -0.056124 
0.018248 0.076687 -0.020031 0.007355 0.998383 0.056063 
0.017127 -0.074219 -0.028516 -0.007416 -0.998383 -0.056154 
0.013177 0.076891 -0.023010 0.007416 0.998383 0.056093 
0.012057 -0.074014 -0.031495 -0.007385 -0.998383 -0.056124 
0.007622 0.077041 -0.024941 0.007447 0.998383 0.056124 
0.006502 -0.073865 -0.033426 -0.007416 -0.998383 -0.056154 
0.001796 0.077130 -0.025751 0.007385 0.998383 0.056124 
0.000676 -0.073776 -0.034236 -0.007385 -0.998383 -0.056154 
-0.004078 0.077155 -0.025408 0.007385 0.998383 0.056093 
-0.005198 -0.073751 -0.033893 -0.007385 -0.998383 -0.056124 
-0.009774 0.077113 -0.023925 0.007385 0.998383 0.056093 
-0.010894 -0.073793 -0.032411 -0.007385 -0.998383 -0.056124 
-0.015072 0.077009 -0.021361 -0.522050 0.051729 -0.851314 
-0.016193 -0.073897 -0.029846 -0.522050 0.051729 -0.851314 
-0.020890 -0.074062 -0.026297 -0.678365 0.046266 -0.733238 
-0.019770 0.076844 -0.017812 -0.678365 0.046266 -0.733238 
-0.024807 -0.074281 -0.021901 -0.808527 0.039003 -0.587146 
-0.023686 0.076626 -0.013415 -0.808527 0.039003 -0.587146 
-0.027792 -0.074544 -0.016826 -0.907620 0.030274 -0.418622 
-0.026671 0.076364 -0.008341 -0.907620 0.030274 -0.418622 
-0.029730 -0.074841 -0.011267 -0.971984 0.020356 -0.234077 
-0.028609 0.076064 -0.002782 -0.971984 0.020356 -0.234077 
-0.030547 -0.075163 -0.005439 -0.999115 0.009674 -0.040529 
-0.029427 0.075743 0.003047 -0.999115 0.009674 -0.040529 
-0.030211 -0.075495 0.000436 -0.987976 -0.001343 0.154515 
-0.029091 0.075411 0.008921 -0.987976 -0.001343 0.154515 
-0.028738 -0.075827 0.006130 -0.938963 -0.012329 0.343760 
-0.027617 0.075080 0.014615 -0.938963 -0.012329 0.343760 
-0.026179 -0.076144 0.011426 -0.853847 -0.022889 0.519944 
-0.025059 0.074762 0.019911 -0.853847 -0.022889 0.519944 
-0.022637 -0.076435 0.016120 -0.735893 -0.032563 0.676290 
-0.021517 0.074473 0.024605 -0.735893 -0.032563 0.676290 
-0.018248 -0.076687 0.020031 -0.589465 -0.040986 0.806726 
-0.017126 0.074219 0.028517 -0.589465 -0.040986 0.806726 
-0.013176 -0.076891 0.023010 -0.420301 -0.047823 0.906095 
-0.012056 0.074014 0.031495 -0.420301 -0.047823 0.906095 
-0.007621 -0.077042 0.024941 -0.234840 -0.052828 0.970580 
-0.006501 0.073864 0.033427 -0.234840 -0.052828 0.970580 
-0.001795 -0.077130 0.025751 -0.040315 -0.055788 0.997620 
-0.000674 0.073776 0.034236 -0.040315 -0.055788 0.997620 
0.004078 -0.077155 0.025408 0.155614 -0.056581 0.986175 
0.005200 0.073751 0.033893 0.155614 -0.056581 0.986175 
0.009775 -0.077113 0.023926 0.345531 -0.055208 0.936766 
0.010895 0.073793 0.032411 0.345531 -0.055208 0.936766 
0.015073 -0.077009 0.021361 0.522080 -0.051729 0.851314 
0.016194 0.073897 0.029846 0.522080 -0.051729 0.851314 
0.019771 -0.076844 0.017812 0.678335 -0.046266 0.733268 
0.020891 0.074062 0.026297 0.678335 -0.046266 0.733268 
0.023687 -0.076626 0.013416 0.808496 -0.039003 0.587176 
0.024808 0.074281 0.021901 0.808496 -0.039003 0.587176 
0.026672 -0.076363 0.008341 0.907620 -0.030274 0.418622 
0.027793 0.074543 0.016826 0.907620 -0.030274 0.418622 
0.028610 -0.076064 0.002783 0.971984 -0.020356 0.234077 
0.029731 0.074841 0.011268 0.971984 -0.020356 0.234077 
0.029427 -0.075742 -0.003045 0.999115 -0.009705 0.040590 
0.030548 0.075163 0.005440 0.999115 -0.009705 0.040590 
0.029092 -0.075411 -0.008920 0.987976 0.001343 -0.154454 
0.030213 0.075496 -0.000435 0.987976 0.001343 -0.154454 
0.027618 -0.075080 -0.014615 0.938963 0.012360 -0.343760 
0.028738 0.075827 -0.006129 0.938963 0.012360 -0.343760 
0.025060 -0.074763 -0.019911 0.853847 0.022889 -0.519974 
0.026179 0.076145 -0.011426 0.853847 0.022889 -0.519974 
0.021518 -0.074473 -0.024605 0.735862 0.032563 -0.676321 
0.022638 0.076435 -0.016120 0.735862 0.032563 -0.676321 
0.017127 -0.074219 -0.028516 0.589465 0.040956 -0.806726 
0.018248 0.076687 -0.020031 0.589465 0.040956 -0.806726 
0.012057 -0.074014 -0.031495 0.420270 0.047823 -0.906095 
0.013177 0.076891 -0.023010 0.420270 0.047823 -0.906095 
0.006502 -0.073865 -0.033426 0.234840 0.052828 -0.970580 
0.007622 0.077041 -0.024941 0.234840 0.052828 -0.970580 
0.000676 -0.073776 -0.034236 0.040345 0.055788 -0.997620 
0.001796 0.077130 -0.025751 0.040345 0.055788 -0.997620 
-0.005198 -0.073751 -0.033893 -0.155644 0.056581 -0.986175 
-0.004078 0.077155 -0.025408 -0.155644 0.056581 -0.986175 
-0.010894 -0.073793 -0.032411 -0.345531 0.055239 -0.936766 
-0.009774 0.077113 -0.023925 -0.345531 0.055239 -0.936766 
3 0 1 2 
3 3 4 5 
3 0 2 6 
3 3 7 4 
3 0 6 8 
3 3 9 7 
3 0 8 10 
3 3 11 9 
3 0 10 12 
3 3 13 11 
3 0 12 14 
3 3 15 13 
3 0 14 16 
3 3 17 15 
3 0 16 18 
3 3 19 17 
3 0 18 20 
3 3 21 19 
3 0 20 22 
3 3 23 21 
3 0 22 24 
3 3 25 23 
3 0 24 26 
3 3 27 25 
3 0 26 28 
3 3 29 27 
3 0 28 30 
3 3 31 29 
3 0 30 32 
3 3 33 31 
3 0 32 34 
3 3 35 33 
3 0 34 36 
3 3 37 35 
3 0 36 38 
3 3 39 37 
3 0 38 40 
3 3 41 39 
3 0 40 42 
3 3 43 41 
3 0 42 44 
3 3 45 43 
3 0 44 46 
3 3 47 45 
3 0 46 48 
3 3 49 47 
3 0 48 50 
3 3 51 49 
3 0 50 52 
3 3 53 51 
3 0 52 54 
3 3 55 53 
3 0 54 56 
3 3 57 55 
3 0 56 58 
3 3 59 57 
3 0 58 60 
3 3 61 59 
3 0 60 62 
3 3 63 61 
3 0 62 64 
3 3 65 63 
3 1 0 64 
3 3 5 65 
4 66 67 68 69 
4 69 68 70 71 
4 71 70 72 73 
4 73 72 74 75 
4 75 74 76 77 
4 77 76 78 79 
4 79 78 80 81 
4 81 80 82 83 
4 83 82 84 85 
4 85 84 86 87 
4 87 86 88 89 
4 89 88 90 91 
4 91 90 92 93 
4 93 92 94 95 
4 95 94 96 97 
4 97 96 98 99 
4 99 98 100 101 
4 101 100 102 103 
4 103 102 104 105 
4 105 104 106 107 
4 107 106 108 109 
4 109 108 110 111 
4 111 110 112 113 
4 113 112 114 115 
4 115 114 116 117 
4 117 116 118 119 
4 119 118 120 121 
4 121 120 122 123 
4 123 122 124 125 
4 125 124 126 127 
4 127 126 128 129 
4 67 66 129 128
